<?xml version="1.0" standalone="no"?>
<!DOCTYPE svg PUBLIC "-//W3C//DTD SVG 1.1//EN" "http://www.w3.org/Graphics/SVG/1.1/DTD/svg11.dtd" >
<svg xmlns="http://www.w3.org/2000/svg" xmlns:xlink="http://www.w3.org/1999/xlink" version="1.1">
<metadata></metadata>
<defs>
<font id="fightthisregular" horiz-adv-x="868" >
<font-face units-per-em="2048" ascent="1638" descent="-410" />
<missing-glyph horiz-adv-x="466" />
<glyph horiz-adv-x="0" />
<glyph horiz-adv-x="682" />
<glyph horiz-adv-x="485" d="M246 1720q-4 -12 10 -12h225q6 0 11 8l79 266q4 13 -10 13h-225q-6 0 -10 -8z" />
<glyph horiz-adv-x="1158" d="M500 1585q0 -61 31.5 -94t82.5 -33h45q6 0 11 6l51 154q4 14 -10 14q-25 0 -25 27q0 8 2 14l78 264v-2q6 18 23.5 34t37.5 16q14 0 20.5 -7.5t6.5 -17.5q0 -6 -4 -18l-78 -263q-6 -27 -39 -43q-6 0 -6 -6l-53 -157q-4 -14 10 -15h35q63 0 125.5 51.5t91.5 149.5l90 295 q12 43 12 80q0 59 -31.5 92t-82.5 33h-105q-63 0 -124.5 -51.5t-92.5 -149.5l-90 -295q-12 -43 -12 -78z" />
<glyph horiz-adv-x="1140" d="M455 2128l71 -670q0 -8 11 -8h174q4 0 8 4l407 690q8 17 -8 17h-192q-4 0 -8 -4l-226 -383l-26 356q0 10 -11 10h-190q-10 0 -10 -12z" />
<glyph unicode="&#xd;" horiz-adv-x="515" d="M74 2q-4 -12 10 -12h254q6 0 10 8l440 1462q4 12 -10 13h-254q-6 0 -10 -9z" />
<glyph horiz-adv-x="612" d="M-27 -25q-8 -14 9 -14h194q2 0 8 6l799 1520q6 14 -8 14h-197q-2 0 -8 -6z" />
<glyph horiz-adv-x="773" d="M29 2q-4 -12 10 -12h620q6 0 11 8l80 266q4 12 -11 12h-327l587 916l82 268q4 12 -10 13h-197l398 671q8 17 -8 17h-193q-4 0 -8 -4l-225 -383l-27 356q0 10 -10 10h-191q-10 0 -10 -12l70 -655h-183q-6 0 -10 -9l-82 -266q-4 -12 11 -12h276l-573 -916z" />
<glyph horiz-adv-x="773" d="M29 2q-4 -12 10 -12h620q6 0 11 8l80 266q4 12 -11 12h-327l587 916l82 268q4 12 -10 13h-197l398 671q8 16 -8 17h-193q-4 0 -8 -4l-225 -383l-27 356q0 10 -10 10h-191q-10 0 -10 -12l70 -655h-183q-6 0 -10 -9l-82 -266q-4 -12 11 -12h276l-573 -916z" />
<glyph unicode=" "  horiz-adv-x="466" />
<glyph unicode="&#x09;" horiz-adv-x="466" />
<glyph unicode="&#xa0;" horiz-adv-x="466" />
<glyph unicode="!" horiz-adv-x="546" d="M102 2q-4 -12 11 -12h227q6 0 10 8l80 266q4 12 -10 12h-227q-6 0 -11 -8zM256 440q-4 -12 10 -12h183q6 0 10 6l346 1024q4 14 -10 15h-256q-6 0 -11 -9z" />
<glyph unicode="&#x22;" horiz-adv-x="751" d="M303 911q-4 -12 10 -12h195q6 0 10 8l168 553q4 12 -10 13h-195q-6 -1 -10 -9zM606 911q-4 -12 10 -12h195q6 0 10 8l168 553q4 12 -10 13h-195q-6 -1 -10 -9z" />
<glyph unicode="#" horiz-adv-x="837" d="M92 4q-4 -14 10 -14h136q6 0 10 6l162 399h391q6 0 10 8l57 185q4 12 -10 12h-96l82 203q4 14 -10 14h-136q-8 0 -10 -6l-86 -211h-403q-8 0 -11 -6l-59 -184q-4 -14 10 -15h111zM301 840q-4 -14 10 -15h109l-84 -207q-4 -14 10 -14h135q6 0 11 6l88 215h391q6 0 10 6 l61 185q4 14 -10 14h-98l156 391q4 14 -11 15h-133q-8 0 -10 -6l-162 -400h-403q-8 0 -11 -6zM367 4q-4 -14 10 -14h135q6 0 10 6l152 381q4 14 -10 14h-138q-8 0 -10 -6zM510 1051q-4 -14 10 -15h135q7 0 11 6l151 379q4 14 -10 15h-137q-8 0 -11 -6z" />
<glyph unicode="$" horiz-adv-x="837" d="M256 -166q-4 -12 10 -12h107q6 0 10 8l41 131q74 0 134 18.5t110.5 63.5t93.5 123t80 201q12 41 17 75.5t5 69.5q0 57 -14 104.5t-38 87t-52.5 73.5t-54.5 65q-45 51 -81 98t-36 107q0 23 10 57q35 119 137 119q33 0 55.5 -13.5t22.5 -46.5q0 -23 -8 -47l-29 -98 q-4 -12 10 -12h226q6 0 10 8l43 143v-2q23 72 22 133q0 78 -46 129t-162 56l36 126q4 12 -10 13h-106q-6 0 -11 -8l-38 -131q-74 -2 -136.5 -24t-115 -69t-93 -122.5t-73.5 -186.5q-12 -41 -17.5 -74.5t-5.5 -66.5q0 -59 15.5 -104.5t40 -83t55.5 -68.5t61 -58 q47 -43 82 -85t35 -99q0 -29 -8 -55q-27 -88 -75 -125t-118 -37h-18q-6 0 -10 -8z" />
<glyph unicode="%" horiz-adv-x="1158" d="M55 -24.5q2 -6.5 11 -6.5h118q4 0 9 4l1253 1467q4 4 2 10t-10 6h-119q-4 0 -8 -4l-1254 -1466q-4 -4 -2 -10.5zM319 883q0 -61 32 -94t83 -33h45q6 0 10 6l52 153q4 14 -11 15q-25 0 -24 26q0 8 2 15l78 264v-2q6 18 23.5 33.5t37.5 15.5q14 0 20.5 -7t6.5 -18 q0 -6 -4 -18l-78 -262q-6 -27 -39 -43q-6 0 -6 -6l-53 -158q-4 -14 10 -14h35q63 0 125.5 51t91.5 149l90 295q12 43 12 80q0 59 -31.5 92t-83.5 33h-104q-63 0 -124.5 -51t-92.5 -150l-90 -294q-12 -43 -13 -78zM653 94q0 -59 32 -92t83 -33h104q63 0 125 51.5t93 147.5 l86 297q12 43 12 80q0 59 -32 92t-83 33h-47q-6 0 -10 -8l-45 -154q-4 -12 10 -12q25 -4 25 -25q0 -4 -5 -16l-77 -265q-4 -16 -19.5 -31.5t-38.5 -15.5q-16 0 -22 9.5t-6 19.5q0 6 2 12l78 267v-2q10 29 38 43q6 0 7 6l49 159q4 12 -11 13h-32q-63 0 -125 -51.5t-92 -149.5 l-86 -295q-12 -43 -13 -80z" />
<glyph unicode="&#x26;" horiz-adv-x="1029" d="M90 188q0 -106 57.5 -166.5t182.5 -60.5q96 0 168.5 41t150.5 125l4 -8l4 -8q12 -29 22.5 -51.5t28 -38t43 -23.5t68.5 -8h88q6 0 11 8l77 258q4 12 -10 12h-57q-16 4 -24.5 16.5t-14.5 32.5q-2 4 2 -1l4 -5q2 0 -3 9.5t-24 41.5l277 338q4 4 2 10.5t-10 6.5h-256 q-4 0 -9 -4l-102 -123l-45 104q47 35 86 68t73 74t61 94t50 131q31 98 31 170q0 96 -53 140t-162 44q-141 0 -243.5 -90t-161.5 -291q-12 -41 -19.5 -85t-7.5 -87q0 -39 6 -73.5t21 -63.5q-98 -61 -176 -157.5t-113 -209.5q-27 -88 -27 -170zM356 301q0 23 9 47 q14 51 44.5 92t71.5 72l76 -174q-86 -98 -141 -98q-31 0 -45.5 16t-14.5 45zM631 969q0 41 12 84v-2q18 59 45 86.5t55 27.5q39 0 39 -45q0 -18 -10 -55q-16 -59 -43 -94t-88 -80q-10 37 -10 78z" />
<glyph unicode="'" horiz-adv-x="452" d="M309 909q-4 -12 10 -12h195q6 0 10 8l168 553q4 12 -10 12h-195q-6 0 -10 -8z" />
<glyph unicode="(" horiz-adv-x="612" d="M139 131q0 -72 42 -106.5t114 -34.5h154q6 0 10 8l61 205q4 12 -10 12h-59q-70 0 -70 33q0 10 6 28l272 904q10 41 36 54t73 13h59q6 0 11 8l61 205q4 12 -10 13h-154q-92 0 -166.5 -57.5t-111.5 -186.5l-299 -991v2q-18 -59 -19 -109z" />
<glyph unicode=")" horiz-adv-x="612" d="M55 2q-4 -12 11 -12h155q92 0 165 57t112 186l299 992q10 31 13 57.5t3 48.5q0 72 -40 107t-111 35h-156q-6 0 -10 -9l-62 -204q-4 -12 10 -13h60q70 0 69 -35v-12t-4 -16l-272 -901q-12 -41 -38 -54.5t-73 -13.5h-59q-6 0 -10 -8z" />
<glyph unicode="*" horiz-adv-x="804" d="M401 823q0 -10 11 -10h120q2 0 9 6l129 230l-11 -226q0 -10 11 -10h121q2 0 8 6l69 131q4 6 0 11l-120 129h200q2 0 8 6l70 127q4 4 0 10l-61 84q-8 8 -15 2l-205 -145l134 231q4 6 0 10l-68 82q-6 6 -14 2l-117 -82q-4 -4 -4 -8l-4 -242l-123 150q-8 8 -14 2l-111 -84 q-4 -4 -4 -8l-8 -127q0 -10 10 -10h190l-194 -127q-4 -4 -4 -9z" />
<glyph unicode="+" horiz-adv-x="1140" d="M186 416q-4 -12 11 -13h335l-118 -401q-4 -12 10 -12h197q6 0 10 8l121 405h342q6 0 10 9l72 229q3 12 -11 12h-897q-6 0 -10 -8zM635 762q-4 -14 10 -14h197q6 0 10 6l98 299q4 14 -10 14h-197q-8 0 -10 -6z" />
<glyph unicode="," horiz-adv-x="466" d="M-33 -260q-8 -16 8 -16h127q4 0 9 4l198 268l80 268q4 12 -10 12h-225q-6 0 -11 -8l-80 -266q-4 -12 11 -12h65z" />
<glyph unicode="-" horiz-adv-x="644" d="M186 408q-3 -13 11 -13h401q6 0 10 8l74 246q4 12 -10 13h-402q-6 0 -10 -9z" />
<glyph unicode="." horiz-adv-x="466" d="M63 2q-4 -12 11 -12h225q6 0 10 8l80 266q4 12 -10 12h-225q-6 0 -11 -8z" />
<glyph unicode="/" horiz-adv-x="612" d="M-27 -25q-8 -14 9 -14h194q2 0 8 6l799 1520q6 14 -8 14h-197q-2 0 -8 -6z" />
<glyph unicode="0" horiz-adv-x="837" d="M113 158q0 -94 58 -138.5t169 -48.5q6 0 10 9l74 260q4 6 -4 10q-12 6 -12 33q0 14 10 55l225 745v-2q16 53 39 77t47 24q33 0 33 -37q0 -21 -12 -58l-226 -745q-25 -76 -57 -90q-6 0 -6 -8l-76 -260q-4 -12 10 -13q147 6 240.5 80t144.5 238l254 844q23 80 23 135 q0 102 -64.5 145t-187.5 43q-158 0 -260.5 -73.5t-153.5 -245.5l-254 -844v2q-25 -78 -24 -137z" />
<glyph unicode="1" horiz-adv-x="837" d="M268 4q-4 -14 11 -14h247q6 0 11 8l430 1425q4 12 -11 13h-233q-6 0 -10 -9l-78 -272v2z" />
<glyph unicode="2" horiz-adv-x="837" d="M45 2q-4 -12 10 -12h559q10 0 11 10q0 41 9 79t19 71v-3q8 23 13.5 43.5t5.5 38.5q0 27 -23 45h-227q70 92 134.5 165t125.5 139q55 59 104.5 115.5t91.5 114.5t75.5 124.5t58.5 148.5q18 61 28.5 109.5t10.5 89.5q0 96 -58.5 136t-191.5 40q-92 0 -161 -22.5t-118 -66.5 t-84 -109.5t-59 -151.5v2l-35 -107q-4 -14 10 -14h246q6 0 10 6l29 90q16 55 35.5 76t50.5 21q18 0 27.5 -6.5t9.5 -24.5q0 -20 -17 -80q-10 -33 -37.5 -74t-66.5 -89t-86 -99t-96 -107q-55 -61 -110.5 -122.5t-102.5 -120t-81 -113.5t-48 -102z" />
<glyph unicode="3" horiz-adv-x="837" d="M262 -8q-4 -14 8 -15q20 -4 44 -6t53 -2q158 0 258 74t153 246l66 215q10 35 15 67.5t5 61.5q0 47 -18.5 79.5t-61.5 45.5q86 20 133.5 86.5t75.5 165.5v-2l39 122q23 80 23 138q0 100 -63.5 144t-186.5 44q-158 0 -259.5 -73.5t-152.5 -245.5l-43 -138q-4 -12 10 -12 h236q6 0 10 8l33 105q12 47 33.5 64.5t50.5 17.5q41 0 41 -35q0 -8 -2 -18.5t-6 -24.5l-39 -129q-14 -47 -36 -64.5t-50 -17.5h-115q-6 0 -10 -8l-80 -262q-4 -12 10 -13h115q37 0 37 -35q0 -14 -3 -34.5t-14 -48.5l-36 -125v2q-23 -74 -45.5 -98.5t-55.5 -24.5h-82 q-8 0 -10 -6z" />
<glyph unicode="4" horiz-adv-x="837" d="M111 342q-4 -12 10 -12h346q6 0 10 6l80 246l-72 -240l-100 -340q-4 -12 10 -12h238q6 0 10 8l98 332h80q6 0 10 8l80 258q4 12 -10 12h-74l246 815q4 12 -10 13h-338q-4 0 -8 -4l-527 -830zM428 600l274 463l-143 -475q0 12 -10 12h-121z" />
<glyph unicode="5" horiz-adv-x="837" d="M111 145q0 -96 65.5 -140t185.5 -44q158 0 259.5 75t156.5 247l135 458v-2q10 29 13.5 55.5t3.5 51.5q0 80 -42 124t-108 44q-35 0 -84 -11.5t-84 -46.5l60 193h313q6 0 10 6l39 111v92q-2 4 -3 9t-3 9l2 -2q-4 16 -17.5 36t-54.5 26h-440q-6 0 -10 -9l-238 -778 q-4 -12 11 -12h208q2 0 9 6l12 23q23 88 82 88q37 0 37 -41q0 -25 -17 -86l-77 -256q-23 -78 -46.5 -104.5t-54.5 -26.5h-37q-16 0 -27.5 4t-11.5 22q0 14 13 49l24 66q4 14 -10 14h-201q-8 0 -10 -6l-35 -98q-16 -41 -22 -78t-6 -68z" />
<glyph unicode="6" horiz-adv-x="837" d="M113 158q0 -188 254 -189q164 0 263 75t146 237l98 327v-2q10 33 15.5 63.5t5.5 59.5q0 78 -44 124t-134 46q-20 0 -56 -7t-73 -34l-68 -213q-4 -16 12.5 -12t26.5 4q16 0 28.5 -7t12.5 -26q0 -13 -6 -31l-78 -262q-10 -37 -32.5 -51t-47.5 -14q-33 0 -33 26q0 12 7 35 q41 137 72.5 246t59 200t53.5 173t52 168q27 88 82 88q35 0 35 -33q0 -16 -10 -51l-29 -94q-4 -12 10 -13h248q6 0 10 8l39 129q25 80 25 144q0 92 -58.5 138t-193.5 46q-88 0 -155.5 -21.5t-118 -64.5t-87 -110.5t-65.5 -159.5l-246 -815q-20 -68 -20 -127z" />
<glyph unicode="7" horiz-adv-x="837" d="M106 4q-8 -14 9 -14h262q2 0 8 6l635 1194l70 233q4 12 -11 13h-557q-6 0 -10 -9l-82 -266q-4 -12 10 -12h277z" />
<glyph unicode="8" horiz-adv-x="837" d="M102 152q0 -102 68 -142.5t197 -40.5q82 0 148.5 16.5t117.5 53.5t89 96.5t62 145.5l64 204v-2q14 43 20 81t6 69q0 86 -65 121l-201 8q-6 0 -10 -8l-33 -105q-4 -12 8 -12q35 -6 35 -35q0 -8 -4 -20l-80 -271q-20 -66 -84 -65q-43 0 -43 35q0 12 2 18l80 270v-2 q18 63 74 70q8 0 8 8l33 105q4 12 -10 12l-148 6h-4q-86 -10 -144.5 -74.5t-99.5 -199.5l-63 -209q-23 -80 -23 -133zM336 889q0 -78 53 -113l203 -8q6 0 10 6l35 103q4 14 -10 14q-31 2 -31 37q0 12 4 30t10 43l21 66q18 63 42.5 89t55.5 26q37 0 37 -41q0 -25 -12 -70 l-21 -65q-16 -55 -36.5 -81t-47.5 -32q-8 0 -8 -6l-35 -107q-4 -14 10 -14l162 -6q98 27 143.5 99.5t77.5 176.5l39 127q8 29 12.5 52.5t4.5 48.5q0 92 -62.5 142t-187.5 50q-156 0 -258.5 -76.5t-143.5 -212.5l-38 -127q-12 -43 -20.5 -79.5t-8.5 -71.5z" />
<glyph unicode="9" horiz-adv-x="837" d="M113 156q0 -92 59 -139.5t195 -47.5q176 0 272 87t152 270l245 815q20 70 21 129q0 186 -252 186q-164 0 -264.5 -73.5t-147.5 -237.5l-98 -326v2q-10 -33 -15.5 -63.5t-5.5 -59.5q0 -80 44 -126t135 -46q23 0 63.5 8.5t79.5 40.5q-4 -12 -8 -25.5t-8 -29.5l-56 -188v2 q-27 -88 -84 -88q-33 0 -32 30q0 14 10 52l26 96q4 12 -10 12h-248q-6 0 -10 -8l-39 -131q-25 -80 -24 -141zM569 817q0 12 6 35l78 262q18 68 76 68q37 0 37 -29q0 -14 -6 -35q-23 -78 -38 -130t-30 -95q-8 -25 -15 -47.5t-13 -44.5q-8 8 -15 2q-16 -12 -43 -12 q-37 0 -37 26z" />
<glyph unicode=":" horiz-adv-x="466" d="M63 2q-4 -12 11 -12h225q6 0 10 8l80 266q4 12 -10 12h-225q-6 0 -11 -8zM283 737q-4 -12 10 -12h225q6 0 10 8l82 266q4 13 -10 13h-225q-6 0 -10 -8z" />
<glyph unicode=";" horiz-adv-x="466" d="M-33 -260q-8 -16 8 -16h127q4 0 9 4l198 268l80 268q4 12 -10 12h-225q-6 0 -11 -8l-80 -266q-4 -12 11 -12h65zM287 739q-4 -12 10 -12h225q6 0 10 8l78 266q4 13 -10 13h-225q-6 0 -10 -8z" />
<glyph unicode="&#x3c;" horiz-adv-x="1140" d="M195 438q-4 -6 4 -10l764 -442q12 -8 16 6l65 221q2 6 -6 10l-528 303l717 305q6 0 6 9l67 221q2 6 -3 11t-11 1l-1030 -442q-6 0 -6 -8z" />
<glyph unicode="=" horiz-adv-x="1140" d="M121 190q-4 -12 10 -12h897q6 0 10 8l68 230q4 12 -10 12h-897q-6 0 -11 -8zM256 641q-4 -12 10 -12h897q7 0 11 8l69 229q4 12 -10 13h-897q-6 0 -10 -9z" />
<glyph unicode="&#x3e;" horiz-adv-x="1140" d="M61 -4q-2 -6 3.5 -11t11.5 -1l1030 442q6 0 6 8l55 184q4 6 -4 11l-764 442q-12 8 -16 -6l-68 -221q-2 -6 7 -10l526 -304l-715 -305q-6 0 -6 -8z" />
<glyph unicode="?" horiz-adv-x="804" d="M207 2q-4 -12 10 -12h227q6 0 11 8l80 266q3 12 -11 12h-227q-6 0 -10 -8zM340 444q-4 -12 10 -12h228q6 0 10 8l35 115q25 82 66.5 128t88.5 87q4 4 10.5 8t10.5 8h-2q27 25 54.5 55.5t55 70.5t53 93.5t48.5 127.5q27 88 26 161q0 207 -231 207q-78 0 -140.5 -18.5 t-113.5 -59.5t-90 -109.5t-68 -166.5v2l-39 -123q-4 -14 10 -14h228q6 0 10 8l27 92v-2q25 80 49 110.5t49 30.5q27 0 27 -39q0 -35 -21 -96q-23 -76 -65.5 -129t-94.5 -100q-53 -49 -99 -103.5t-73 -134.5z" />
<glyph unicode="@" horiz-adv-x="1488" d="M236 477q0 -117 34.5 -212t99 -162.5t155.5 -104.5t204 -37q162 0 321.5 83t299.5 237q4 4 2 10t-11 6h-163q-86 -66 -186.5 -106.5t-200.5 -40.5q-166 0 -260.5 95t-94.5 261q0 98 37 221q37 125 102.5 231.5t150.5 184.5t185.5 122t208.5 44q152 0 240 -77t88 -226 q0 -82 -31 -189q-25 -80 -57.5 -140.5t-69.5 -101t-72.5 -61t-64.5 -20.5q-6 0 -6 6q0 4 6 22q10 37 18 53q4 10 9.5 18.5t3.5 4.5l239 500q6 14 -10 14h-147q-2 0 -9 -6l-358 -725q-4 -20 -4 -27q0 -41 23.5 -60.5t58.5 -19.5q41 0 125 29t178 98.5t182 183t142 285.5 q16 51 22 98.5t6 94.5q0 102 -34.5 183t-96 138.5t-145.5 87t-180 29.5q-137 0 -276.5 -59.5t-261.5 -162.5t-218 -243.5t-146 -304.5q-39 -131 -38 -254zM475 530q0 -109 56.5 -178t148.5 -69q41 0 88 23.5t92 58.5l119 241q4 8 -3 12.5t-13 -2.5q-37 -43 -82.5 -69.5 t-92.5 -26.5q-41 0 -62 24.5t-21 65.5q0 29 12 70q12 43 38.5 84t62.5 72.5t76 52t79 20.5q41 0 60.5 -22.5t19.5 -63.5q0 -18 -2 -28q-2 -8 6 -11.5t12 4.5l115 232q-20 66 -65.5 95.5t-110.5 29.5q-84 0 -164 -42t-148.5 -110.5t-122 -156.5t-79.5 -183q-18 -61 -19 -123z " />
<glyph unicode="A" d="M-4 4q-4 -6 0 -10t10 -4h266q6 0 11 6l100 252h156l-45 -246q-4 -12 10 -12h262q10 0 10 8l230 1462q0 12 -11 13h-338q-4 0 -10 -7zM498 535l221 563l-123 -563h-98z" />
<glyph unicode="B" d="M66 2q-4 -12 10 -12h379q154 0 241.5 76.5t134.5 230.5l68 219q10 35 15.5 62.5t5.5 54.5q0 104 -89 135q92 39 142.5 111.5t73.5 154.5l38 127q10 39 16.5 72t6.5 63q0 88 -53.5 132.5t-167.5 44.5h-371q-6 0 -10 -9l-80 -262q-4 -12 10 -12h168q61 0 91 -1t38 -2t12 -1 h9q23 0 32 -7.5t9 -29.5v-19q0 -8 -4 -20q0 -4 1 -8t1 -8q0 -23 -21 -47q-12 -45 -23.5 -72t-23.5 -42t-26.5 -20.5t-32.5 -5.5l-334 2q-6 0 -10 -8zM424 276l102 345h52q29 0 42 -6.5t13 -28.5q0 -18 -7.5 -51t-21.5 -84v2q-18 -59 -32.5 -94t-29 -53.5t-31.5 -24t-42 -5.5 h-45z" />
<glyph unicode="C" horiz-adv-x="837" d="M176.5 6.5q61.5 -45.5 194.5 -45.5h24q6 0 12.5 1t12.5 1t10 8l76 277q2 8 -3 11t-11 -1q-20 -10 -41 -10q-37 0 -37 33q0 16 10 57l235 782q16 55 38 74.5t51 19.5q16 0 28 -9t12 -25q0 -2 -4 -19l-63 -219q-4 -12 10 -12h254q6 0 10 8l62 207q28 95 28 160v4 q0 100 -62 146t-196 46q-176 0 -277.5 -83t-154.5 -269l-250 -832q-30 -95 -30 -163q0 -102 61.5 -147.5z" />
<glyph unicode="D" d="M379 4q-4 -14 10 -14q86 0 153.5 15t121 55t94.5 109t73 173l232 774q16 53 24.5 96t8.5 78q0 106 -69 144.5t-198 38.5h-313q-6 0 -10 -9l-76 -264q-4 -12 10 -12l293 -2q55 0 55 -39q0 -14 -2 -23q-4 -35 -17 -83t-42 -134q-25 -80 -63.5 -201.5t-92.5 -310.5v2 q-20 -59 -37.5 -85.5t-41.5 -32.5q-8 0 -9 -7z" />
<glyph unicode="E" horiz-adv-x="739" d="M66 2q-4 -12 10 -12h522q6 0 10 8l80 266q4 12 -10 12h-254l102 345h248q6 0 10 8l82 266q4 12 -10 12h-242l82 279h260q6 0 11 8l82 266q4 12 -11 13h-522q-6 -1 -10 -9z" />
<glyph unicode="F" horiz-adv-x="739" d="M66 2q-4 -12 10 -12h254q6 0 10 8l186 623h248q6 0 10 8l82 266q4 12 -10 12h-242l82 279h260q6 0 11 8l82 266q4 12 -11 13h-522q-6 -1 -10 -9z" />
<glyph unicode="G" horiz-adv-x="880" d="M115 188q0 -53 23.5 -90t62.5 -60.5t88 -33.5t98 -10h37q37 0 77 1t80 7t75.5 19.5t62.5 37.5q0 -6 8 -8t12 6l238 789q4 12 -10 12h-244q-8 0 -10 -6l-168 -530q-14 -41 -32.5 -57.5t-53.5 -16.5q-47 0 -47 31q0 4 2 14t6 22l250 828q16 71 84 71h2q35 0 41 -18 q4 -8 10 -8t10 8l98 287q4 14 -10 14q-16 2 -35.5 3t-42.5 1q-176 0 -277 -83t-155 -269l-268 -887q-12 -43 -12 -74z" />
<glyph unicode="H" horiz-adv-x="902" d="M66 2q-4 -12 10 -12h254q6 0 10 8l186 623h125l-184 -619q-4 -12 10 -12h254q6 0 10 8l441 1462q4 12 -11 13h-253q-6 0 -11 -9l-168 -557h-125l166 553q4 12 -10 13h-254q-6 -1 -10 -9z" />
<glyph unicode="I" horiz-adv-x="515" d="M74 2q-4 -12 10 -12h254q6 0 10 8l440 1462q4 12 -10 13h-254q-6 0 -10 -9z" />
<glyph unicode="J" horiz-adv-x="804" d="M61 141q0 -104 66 -142t195 -38q84 0 149.5 16.5t116.5 56.5t91 108.5t71 170.5l344 1147q4 12 -11 13h-254q-6 0 -10 -9l-342 -1134q-14 -45 -32.5 -63.5t-51.5 -18.5q-39 0 -39 28q0 14 11 50l41 133q3 12 -11 12h-248q-6 0 -10 -8l-43 -146q-16 -53 -24.5 -97 t-8.5 -79z" />
<glyph unicode="K" horiz-adv-x="902" d="M66 2q-4 -12 10 -12h254q6 0 10 8l217 727h262q2 0 8 6l418 727q6 14 -8 15h-268q-4 0 -8 -5l-365 -620l184 612q4 12 -10 13h-254q-6 0 -10 -9z" />
<glyph unicode="L" horiz-adv-x="708" d="M66 2q-4 -12 10 -12h522q6 0 10 8l80 266q4 12 -10 12h-254l356 1184q4 12 -10 13h-254q-6 0 -10 -9z" />
<glyph unicode="M" horiz-adv-x="1287" d="M59 2q-4 -12 11 -12h239q6 0 10 8l336 1112l-196 -1108q-4 -12 10 -12h254q6 0 10 6l469 1102l-330 -1096q-4 -12 11 -12h239q6 0 11 8l440 1462q4 12 -10 13h-404q-8 0 -10 -7l-432 -1067l207 1061q4 12 -11 13h-403q-6 0 -10 -9z" />
<glyph unicode="N" horiz-adv-x="1029" d="M66 2q-4 -12 10 -12h241q6 0 11 8l280 934l-80 -932q0 -10 11 -10h319q6 0 10 8l441 1462q4 12 -11 13h-239q-6 0 -10 -9l-287 -950l88 948q0 10 -10 11h-324q-6 0 -10 -9z" />
<glyph unicode="O" d="M113 143q0 -106 68.5 -144t197.5 -38q84 0 151.5 15.5t121 55.5t94 108.5t73.5 172.5l250 832q31 104 31 174q0 106 -67.5 144t-196.5 38q-86 0 -153 -15.5t-120 -55t-94 -108.5t-74 -173l-250 -832q-16 -53 -24 -96t-8 -78zM412 279q0 4 2 14t6 22l250 828q16 71 84 71 h2q45 0 45 -32q0 -14 -6 -35l-250 -828v3q-14 -41 -32.5 -57.5t-53.5 -16.5q-47 0 -47 31z" />
<glyph unicode="P" horiz-adv-x="837" d="M66 2q-4 -12 10 -12h254q6 0 10 8l145 485q0 8 -2 11q0 4 4 12l91 295l4 4l114 381h58q20 0 30.5 -4t10.5 -25q0 -23 -10.5 -65.5t-32.5 -114.5q-16 -57 -30.5 -93t-28 -56.5t-29 -27.5t-33.5 -7h-8q-8 0 -11 -7l-90 -266q-4 -14 10 -14h13q96 0 164.5 16.5t119 55 t86 104.5t66.5 166l84 278q33 104 33 179q0 96 -63.5 132t-205.5 36h-313q-6 0 -10 -9z" />
<glyph unicode="Q" d="M113 143q0 -78 38.5 -117.5t116.5 -52.5l-32 -114q-25 -80 -25 -127q0 -66 39 -88.5t110 -22.5h172q6 0 11 8l69 230q4 12 -10 12h-96q-35 0 -35 37q0 6 4 26v-2l12 39q59 8 109.5 30t90.5 61.5t73 101t59 149.5l250 832q31 104 31 172q0 104 -62.5 142t-179.5 42 q-6 0 -10 -8l-76 -262q-2 -8 8 -12q4 -2 6 -3.5t2 -11.5q0 -20 -11 -71.5t-38.5 -151.5t-75 -261t-118.5 -401v3q-14 -41 -32.5 -57.5t-53.5 -16.5q-47 0 -47 31q0 4 2 14t6 22l250 828q14 68 78 71q6 0 10 7l86 266q4 14 -10 14q-86 0 -154 -16.5t-120 -56t-92 -107.5 t-73 -172l-250 -832q-16 -53 -24 -96t-8 -78z" />
<glyph unicode="R" d="M66 2q-4 -12 10 -12h254q6 0 10 8l311 1188h56q43 0 43 -37q0 -31 -19 -100q-25 -90 -46 -116t-56 -26q-10 0 -11 -8l-57 -266q-4 -12 8 -12q43 -4 43 -39q0 -14 -2 -23l-127 -498l2 2q-4 -10 -5 -16t-1 -14v-21q0 -8 4 -16q2 -6 11 -6h254q14 0 10 14q-4 12 -4 19 q0 16 6 45.5t22 89.5l82 317q25 92 25 152q0 109 -78 139q39 12 69.5 36.5t52 55.5t36 64.5t22.5 64.5l45 174q10 37 15.5 69t5.5 60q0 104 -69.5 143.5t-205.5 39.5h-325q-6 0 -11 -9z" />
<glyph unicode="S" horiz-adv-x="804" d="M299 -25q-4 -14 10 -14h37q94 0 165 19.5t124 67.5t93 126t75 195q16 55 23.5 103t7.5 89q0 55 -12.5 100.5t-31 82t-41 66.5t-44.5 56q-35 41 -62 80t-27 92q0 14 2.5 28.5t8.5 33.5q16 61 38.5 87.5t57.5 26.5q41 0 41 -43q0 -23 -12 -65v2l-27 -82q-4 -14 10 -14h248 q6 0 10 8l35 115q31 100 31 170q0 106 -64.5 151t-191.5 45q-92 0 -163 -21.5t-124 -67.5t-92 -118.5t-70 -173.5q-32 -108 -32 -189q0 -58 11 -100.5t28.5 -78t40 -65.5t44.5 -56q35 -43 64 -86t29 -105q0 -35 -13 -80q-18 -59 -40.5 -85.5t-59.5 -26.5q-12 0 -20 2 q-8 4 -13 -6z" />
<glyph unicode="T" horiz-adv-x="739" d="M184 2q-4 -12 11 -12h254q6 0 10 8l356 1188h180q6 0 11 8l81 266q4 12 -10 13h-631q-6 0 -10 -9l-82 -266q-4 -12 11 -12h174z" />
<glyph unicode="U" d="M113 143q0 -106 68.5 -144t197.5 -38q84 0 151.5 15.5t121 55.5t94 108.5t73.5 172.5l344 1147q4 12 -10 13h-254q-6 0 -10 -9l-332 -1102q-23 -72 -43 -93t-55 -21q-23 0 -33 6t-10 27q0 23 16 77l332 1102q4 12 -10 13h-254q-6 0 -11 -9l-344 -1147q-16 -53 -24 -96 t-8 -78z" />
<glyph unicode="V" d="M207 2q0 -12 10 -12h338q4 0 10 6l652 1462q5 15 -11 15h-260q-8 0 -10 -7l-422 -1046l207 1040q4 12 -10 13h-265q-10 0 -10 -9z" />
<glyph unicode="W" horiz-adv-x="1353" d="M188 2q-4 -12 11 -12h319q6 0 10 6l408 1026l-209 -1020q-4 -12 10 -12h322q6 0 10 6l631 1462q6 14 -10 15h-263q-8 0 -10 -7l-403 -1040l209 1034q4 12 -11 13h-286q-8 0 -11 -7l-415 -1046l221 1040q4 12 -10 13h-265q-10 -1 -10 -9z" />
<glyph unicode="X" horiz-adv-x="933" d="M-2 6q-8 -16 8 -16h270q4 0 9 4l260 420l6 -414q0 -10 10 -10h268q10 0 11 10q-8 129 -14.5 230.5t-11.5 183.5t-10 150.5t-9 135.5q-4 70 -9.5 144t-11.5 163t-13 199.5t-16 255.5q0 10 -10 11h-266q-10 0 -10 -11l39 -698z" />
<glyph unicode="Y" horiz-adv-x="902" d="M264 2q-4 -12 10 -12h254q6 0 11 8l168 555l540 903q8 16 -8 17h-266q-2 0 -8 -7l-271 -497l29 493q0 10 -10 11h-267q-10 0 -10 -11l-4 -903z" />
<glyph unicode="Z" horiz-adv-x="773" d="M29 2q-4 -12 10 -12h620q6 0 11 8l80 266q4 12 -11 12h-327l587 916l82 268q4 12 -10 13h-584q-6 0 -10 -9l-82 -266q-4 -12 11 -12h276l-573 -916z" />
<glyph unicode="[" horiz-adv-x="612" d="M88 2q-4 -12 10 -12h351q6 0 10 8l61 205q4 12 -10 12h-141l311 1032h147q6 0 11 8l61 205q4 12 -10 13h-350q-6 0 -11 -9z" />
<glyph unicode="\" horiz-adv-x="1070" d="M324 1483l458 -1512q4 -8 11 -8h194q14 0 10 12l-456 1512q-4 8 -11 8h-196q-14 0 -10 -12z" />
<glyph unicode="]" horiz-adv-x="612" d="M55 2q-3 -12 11 -12h352q6 0 10 8l440 1462q4 12 -10 13h-352q-6 0 -10 -9l-62 -204q-4 -12 10 -13h144l-312 -1032h-149q-6 0 -10 -8z" />
<glyph unicode="^" horiz-adv-x="1140" d="M308 652.5q3 -5.5 9 -5.5h193q4 0 8 4l354 516l46 -510q0 -10 10 -10h190q10 0 10 12l-79 768q0 8 -11 9h-174q-4 0 -8 -4l-547 -768q-4 -6 -1 -11.5z" />
<glyph unicode="_" horiz-adv-x="966" d="M-104 -309q-4 -13 10 -13h870q6 0 10 9l48 157q4 12 -11 13h-870q-6 0 -10 -9z" />
<glyph unicode="`" horiz-adv-x="452" d="M344 1992q-2 -7 2 -12l316 -315q2 -2 8 -2h248q8 0 10 7t-2 11l-318 316q-2 2 -8 2h-246q-8 0 -10 -7z" />
<glyph unicode="a" d="M-4 4q-4 -6 0 -10t10 -4h266q6 0 11 6l100 252h156l-45 -246q-4 -12 10 -12h262q10 0 10 8l230 1462q0 12 -11 13h-338q-4 0 -10 -7zM498 535l221 563l-123 -563h-98z" />
<glyph unicode="b" d="M66 2q-4 -12 10 -12h379q154 0 241.5 76.5t134.5 230.5l68 219q10 35 15.5 62.5t5.5 54.5q0 104 -89 135q92 39 142.5 111.5t73.5 154.5l38 127q10 39 16.5 72t6.5 63q0 88 -53.5 132.5t-167.5 44.5h-371q-6 0 -10 -9l-80 -262q-4 -12 10 -12h168q61 0 91 -1t38 -2t12 -1 h9q23 0 32 -7.5t9 -29.5v-19q0 -8 -4 -20q0 -4 1 -8t1 -8q0 -23 -21 -47q-12 -45 -23.5 -72t-23.5 -42t-26.5 -20.5t-32.5 -5.5l-334 2q-6 0 -10 -8zM424 276l102 345h52q29 0 42 -6.5t13 -28.5q0 -18 -7.5 -51t-21.5 -84v2q-18 -59 -32.5 -94t-29 -53.5t-31.5 -24t-42 -5.5 h-45z" />
<glyph unicode="c" horiz-adv-x="837" d="M176.5 6.5q61.5 -45.5 194.5 -45.5h24q6 0 12.5 1t12.5 1t10 8l76 277q2 8 -3 11t-11 -1q-20 -10 -41 -10q-37 0 -37 33q0 16 10 57l235 782q16 55 38 74.5t51 19.5q16 0 28 -9t12 -25q0 -2 -4 -19l-63 -219q-4 -12 10 -12h254q6 0 10 8l62 207q28 95 28 160v4 q0 100 -62 146t-196 46q-176 0 -277.5 -83t-154.5 -269l-250 -832q-30 -95 -30 -163q0 -102 61.5 -147.5z" />
<glyph unicode="d" d="M379 4q-4 -14 10 -14q86 0 153.5 15t121 55t94.5 109t73 173l232 774q16 53 24.5 96t8.5 78q0 106 -69 144.5t-198 38.5h-313q-6 0 -10 -9l-76 -264q-4 -12 10 -12l293 -2q55 0 55 -39q0 -14 -2 -23q-4 -35 -17 -83t-42 -134q-25 -80 -63.5 -201.5t-92.5 -310.5v2 q-20 -59 -37.5 -85.5t-41.5 -32.5q-8 0 -9 -7z" />
<glyph unicode="e" horiz-adv-x="739" d="M66 2q-4 -12 10 -12h522q6 0 10 8l80 266q4 12 -10 12h-254l102 345h248q6 0 10 8l82 266q4 12 -10 12h-242l82 279h260q6 0 11 8l82 266q4 12 -11 13h-522q-6 -1 -10 -9z" />
<glyph unicode="f" horiz-adv-x="739" d="M66 2q-4 -12 10 -12h254q6 0 10 8l186 623h248q6 0 10 8l82 266q4 12 -10 12h-242l82 279h260q6 0 11 8l82 266q4 12 -11 13h-522q-6 -1 -10 -9z" />
<glyph unicode="g" horiz-adv-x="880" d="M115 188q0 -53 23.5 -90t62.5 -60.5t88 -33.5t98 -10h37q37 0 77 1t80 7t75.5 19.5t62.5 37.5q0 -6 8 -8t12 6l238 789q4 12 -10 12h-244q-8 0 -10 -6l-168 -530q-14 -41 -32.5 -57.5t-53.5 -16.5q-47 0 -47 31q0 4 2 14t6 22l250 828q16 71 84 71h2q35 0 41 -18 q4 -8 10 -8t10 8l98 287q4 14 -10 14q-16 2 -35.5 3t-42.5 1q-176 0 -277 -83t-155 -269l-268 -887q-12 -43 -12 -74z" />
<glyph unicode="h" horiz-adv-x="902" d="M66 2q-4 -12 10 -12h254q6 0 10 8l186 623h125l-184 -619q-4 -12 10 -12h254q6 0 10 8l441 1462q4 12 -11 13h-253q-6 0 -11 -9l-168 -557h-125l166 553q4 12 -10 13h-254q-6 -1 -10 -9z" />
<glyph unicode="i" horiz-adv-x="515" d="M74 2q-4 -12 10 -12h254q6 0 10 8l440 1462q4 12 -10 13h-254q-6 0 -10 -9z" />
<glyph unicode="j" horiz-adv-x="804" d="M61 141q0 -104 66 -142t195 -38q84 0 149.5 16.5t116.5 56.5t91 108.5t71 170.5l344 1147q4 12 -11 13h-254q-6 0 -10 -9l-342 -1134q-14 -45 -32.5 -63.5t-51.5 -18.5q-39 0 -39 28q0 14 11 50l41 133q3 12 -11 12h-248q-6 0 -10 -8l-43 -146q-16 -53 -24.5 -97 t-8.5 -79z" />
<glyph unicode="k" horiz-adv-x="902" d="M66 2q-4 -12 10 -12h254q6 0 10 8l217 727h262q2 0 8 6l418 727q6 14 -8 15h-268q-4 0 -8 -5l-365 -620l184 612q4 12 -10 13h-254q-6 0 -10 -9z" />
<glyph unicode="l" horiz-adv-x="708" d="M66 2q-4 -12 10 -12h522q6 0 10 8l80 266q4 12 -10 12h-254l356 1184q4 12 -10 13h-254q-6 0 -10 -9z" />
<glyph unicode="m" horiz-adv-x="1287" d="M59 2q-4 -12 11 -12h239q6 0 10 8l336 1112l-196 -1108q-4 -12 10 -12h254q6 0 10 6l469 1102l-330 -1096q-4 -12 11 -12h239q6 0 11 8l440 1462q4 12 -10 13h-404q-8 0 -10 -7l-432 -1067l207 1061q4 12 -11 13h-403q-6 0 -10 -9z" />
<glyph unicode="n" horiz-adv-x="1029" d="M66 2q-4 -12 10 -12h241q6 0 11 8l280 934l-80 -932q0 -10 11 -10h319q6 0 10 8l441 1462q4 12 -11 13h-239q-6 0 -10 -9l-287 -950l88 948q0 10 -10 11h-324q-6 0 -10 -9z" />
<glyph unicode="o" d="M113 143q0 -106 68.5 -144t197.5 -38q84 0 151.5 15.5t121 55.5t94 108.5t73.5 172.5l250 832q31 104 31 174q0 106 -67.5 144t-196.5 38q-86 0 -153 -15.5t-120 -55t-94 -108.5t-74 -173l-250 -832q-16 -53 -24 -96t-8 -78zM412 279q0 4 2 14t6 22l250 828q16 71 84 71 h2q45 0 45 -32q0 -14 -6 -35l-250 -828v3q-14 -41 -32.5 -57.5t-53.5 -16.5q-47 0 -47 31z" />
<glyph unicode="p" horiz-adv-x="837" d="M66 2q-4 -12 10 -12h254q6 0 10 8l145 485q0 8 -2 11q0 4 4 12l91 295l4 4l114 381h58q20 0 30.5 -4t10.5 -25q0 -23 -10.5 -65.5t-32.5 -114.5q-16 -57 -30.5 -93t-28 -56.5t-29 -27.5t-33.5 -7h-8q-8 0 -11 -7l-90 -266q-4 -14 10 -14h13q96 0 164.5 16.5t119 55 t86 104.5t66.5 166l84 278q33 104 33 179q0 96 -63.5 132t-205.5 36h-313q-6 0 -10 -9z" />
<glyph unicode="q" d="M113 143q0 -78 38.5 -117.5t116.5 -52.5l-32 -114q-25 -80 -25 -127q0 -66 39 -88.5t110 -22.5h172q6 0 11 8l69 230q4 12 -10 12h-96q-35 0 -35 37q0 6 4 26v-2l12 39q59 8 109.5 30t90.5 61.5t73 101t59 149.5l250 832q31 104 31 172q0 104 -62.5 142t-179.5 42 q-6 0 -10 -8l-76 -262q-2 -8 8 -12q4 -2 6 -3.5t2 -11.5q0 -20 -11 -71.5t-38.5 -151.5t-75 -261t-118.5 -401v3q-14 -41 -32.5 -57.5t-53.5 -16.5q-47 0 -47 31q0 4 2 14t6 22l250 828q14 68 78 71q6 0 10 7l86 266q4 14 -10 14q-86 0 -154 -16.5t-120 -56t-92 -107.5 t-73 -172l-250 -832q-16 -53 -24 -96t-8 -78z" />
<glyph unicode="r" d="M66 2q-4 -12 10 -12h254q6 0 10 8l311 1188h56q43 0 43 -37q0 -31 -19 -100q-25 -90 -46 -116t-56 -26q-10 0 -11 -8l-57 -266q-4 -12 8 -12q43 -4 43 -39q0 -14 -2 -23l-127 -498l2 2q-4 -10 -5 -16t-1 -14v-21q0 -8 4 -16q2 -6 11 -6h254q14 0 10 14q-4 12 -4 19 q0 16 6 45.5t22 89.5l82 317q25 92 25 152q0 109 -78 139q39 12 69.5 36.5t52 55.5t36 64.5t22.5 64.5l45 174q10 37 15.5 69t5.5 60q0 104 -69.5 143.5t-205.5 39.5h-325q-6 0 -11 -9z" />
<glyph unicode="s" horiz-adv-x="804" d="M299 -25q-4 -14 10 -14h37q94 0 165 19.5t124 67.5t93 126t75 195q16 55 23.5 103t7.5 89q0 55 -12.5 100.5t-31 82t-41 66.5t-44.5 56q-35 41 -62 80t-27 92q0 14 2.5 28.5t8.5 33.5q16 61 38.5 87.5t57.5 26.5q41 0 41 -43q0 -23 -12 -65v2l-27 -82q-4 -14 10 -14h248 q6 0 10 8l35 115q31 100 31 170q0 106 -64.5 151t-191.5 45q-92 0 -163 -21.5t-124 -67.5t-92 -118.5t-70 -173.5q-32 -108 -32 -189q0 -58 11 -100.5t28.5 -78t40 -65.5t44.5 -56q35 -43 64 -86t29 -105q0 -35 -13 -80q-18 -59 -40.5 -85.5t-59.5 -26.5q-12 0 -20 2 q-8 4 -13 -6z" />
<glyph unicode="t" horiz-adv-x="739" d="M184 2q-4 -12 11 -12h254q6 0 10 8l356 1188h180q6 0 11 8l81 266q4 12 -10 13h-631q-6 0 -10 -9l-82 -266q-4 -12 11 -12h174z" />
<glyph unicode="u" d="M113 143q0 -106 68.5 -144t197.5 -38q84 0 151.5 15.5t121 55.5t94 108.5t73.5 172.5l344 1147q4 12 -10 13h-254q-6 0 -10 -9l-332 -1102q-23 -72 -43 -93t-55 -21q-23 0 -33 6t-10 27q0 23 16 77l332 1102q4 12 -10 13h-254q-6 0 -11 -9l-344 -1147q-16 -53 -24 -96 t-8 -78z" />
<glyph unicode="v" d="M207 2q0 -12 10 -12h338q4 0 10 6l652 1462q5 15 -11 15h-260q-8 0 -10 -7l-422 -1046l207 1040q4 12 -10 13h-265q-10 0 -10 -9z" />
<glyph unicode="w" horiz-adv-x="1353" d="M188 2q-4 -12 11 -12h319q6 0 10 6l408 1026l-209 -1020q-4 -12 10 -12h322q6 0 10 6l631 1462q6 14 -10 15h-263q-8 0 -10 -7l-403 -1040l209 1034q4 12 -11 13h-286q-8 0 -11 -7l-415 -1046l221 1040q4 12 -10 13h-265q-10 -1 -10 -9z" />
<glyph unicode="x" horiz-adv-x="933" d="M-2 6q-8 -16 8 -16h270q4 0 9 4l260 420l6 -414q0 -10 10 -10h268q10 0 11 10l-95 1462q0 10 -10 11h-266q-10 0 -10 -11l39 -698z" />
<glyph unicode="y" horiz-adv-x="902" d="M264 2q-4 -12 10 -12h254q6 0 11 8l168 555l540 903q8 16 -8 17h-266q-2 0 -8 -7l-271 -497l29 493q0 10 -10 11h-267q-10 0 -10 -11l-4 -903z" />
<glyph unicode="z" horiz-adv-x="773" d="M29 2q-4 -12 10 -12h620q6 0 11 8l80 266q4 12 -11 12h-327l587 916l82 268q4 12 -10 13h-584q-6 0 -10 -9l-82 -266q-4 -12 11 -12h276l-573 -916z" />
<glyph unicode="{" horiz-adv-x="581" d="M174 113q0 -123 127 -123h121q6 0 10 8l60 205q4 12 -11 12h-28q-43 0 -43 27q0 14 10 51l82 278q8 27 8 58q0 45 -22.5 69.5t-47.5 34.5q41 14 87 51t69 115l78 266q14 49 31.5 65.5t52.5 16.5h30q6 0 11 8l59 205q4 12 -10 13h-121q-86 0 -143.5 -56.5t-89.5 -165.5 l-88 -305q-16 -53 -45 -76.5t-60 -23.5q-6 0 -10 -8l-60 -205q-4 -12 11 -12q18 -2 32.5 -14.5t14.5 -39.5q0 -23 -8 -47l-88 -305v2q-18 -59 -19 -104z" />
<glyph unicode="|" horiz-adv-x="460" d="M-106 -293q-4 -14 10 -14h184q6 0 10 6l746 2046q4 14 -10 14h-185q-8 0 -10 -6z" />
<glyph unicode="}" horiz-adv-x="581" d="M51 4q-4 -14 10 -14h123q86 0 146.5 56t101.5 163l111 305q20 57 52 80.5t60 26.5q7 0 11 6l73 204q4 14 -10 15q-18 0 -30.5 10t-12.5 33q0 16 12 51l111 305q25 68 25 121q0 106 -117 107h-123q-8 0 -10 -7l-76 -204q-4 -14 10 -15h31q39 0 39 -22q0 -18 -15 -54 l-96 -266q-8 -20 -10 -36.5t-2 -32.5q0 -41 18.5 -64.5t40.5 -34.5q-41 -10 -89 -47t-77 -112l-102 -279q-16 -51 -35.5 -67.5t-54.5 -16.5h-31q-8 0 -10 -6z" />
<glyph unicode="~" horiz-adv-x="1079" d="M289 344q0 -8 7 -10t11 4q59 68 102.5 105.5t84.5 37.5q23 0 47 -12t61 -41l27 -18q47 -33 86 -50.5t80 -17.5q78 0 146.5 50t129.5 132l8 189q0 8 -7 10t-11 -4q-59 -68 -103.5 -106t-85.5 -38q-23 0 -46 14.5t-60 39.5l-27 18q-47 33 -86 50.5t-80 17.5 q-78 0 -147.5 -50.5t-128.5 -132.5z" />
<glyph unicode="&#xa1;" horiz-adv-x="560" d="M-29 -346q-4 -14 11 -14h256q6 0 10 8l272 1024q4 12 -10 12h-182q-9 0 -11 -6zM346 848q-4 -12 10 -12h228q6 0 10 8l80 266q4 12 -10 12h-228q-6 0 -10 -8z" />
<glyph unicode="&#xa2;" horiz-adv-x="837" d="M115 150q0 -98 61.5 -143.5t194.5 -45.5h20l-53 -158q-4 -14 10 -14h107q6 0 10 6l153 459q2 6 -2 11t-10 3q-16 -4 -40.5 -6t-47.5 -2h-26q-6 0 -9 -2l-2 -2h4q-20 -8 -34 -8q-37 0 -37 33q0 16 10 57l235 782q16 55 38 74.5t51 19.5q16 0 28 -9t12 -25q0 -2 -4 -19 l-63 -219q-4 -12 10 -12h254q6 0 10 8l62 207q27 92 26 162q0 86 -44 132t-142 56l39 129q4 12 -10 12h-107q-6 0 -10 -8l-39 -131q-154 -12 -241 -95t-134 -253l-250 -832q-31 -98 -30 -167z" />
<glyph unicode="&#xa3;" horiz-adv-x="794" d="M18 2q-4 -12 11 -12h149q6 0 10 6q23 53 70 53q18 0 78 -31q47 -25 81 -36t68 -11q115 0 187.5 89.5t118.5 240.5q4 12 -11 12h-149q-8 0 -10 -6l-5 -12q-8 -20 -16 -33.5t-18 -13.5q-14 0 -68 26h2q-12 8 -35.5 17.5t-51.5 16.5t-56.5 11.5t-50.5 4.5q-31 0 -46 -9l3 2 q-96 -10 -158 -93t-103 -222zM182 569q-4 -12 11 -12h516q6 0 10 8l45 152q4 12 -10 12h-154v213q0 47 2 77t10 54v-2q35 104 95 105q41 0 41 -64q0 -25 -9 -51l-18 -64q-4 -12 10 -12h213q6 0 10 8l21 76q33 106 33 191q0 197 -213 196q-164 0 -272.5 -88t-160.5 -260 q-16 -59 -25 -138t-9 -151v-49q0 -23 4 -41h-96q-6 0 -11 -8z" />
<glyph unicode="&#xa5;" horiz-adv-x="794" d="M211 512q-4 -14 10 -14h178l-178 -494q-4 -14 10 -14h232q6 0 10 6l182 502h193q6 0 10 6l43 114q4 14 -10 15h-627q-8 0 -10 -6zM307 776q-4 -14 10 -14h627q6 0 10 6l43 115q4 14 -10 14h-104l319 522q8 16 -8 17h-225q-2 0 -8 -6l-259 -461l74 454q4 12 -10 13h-225 q-10 0 -11 -9l-57 -530h-113q-8 0 -10 -6z" />
<glyph unicode="&#xa6;" horiz-adv-x="460" d="M-23 -182q-4 -12 11 -13h182q6 0 10 9l209 714q4 12 -10 13h-184q-7 -1 -11 -9zM272 840q-4 -12 11 -13h184q6 0 10 9l209 716q4 12 -10 13h-182q-7 -1 -11 -9z" />
<glyph unicode="&#xa7;" horiz-adv-x="884" d="M221 401q0 -55 20.5 -100t49 -71.5t76.5 -63.5q43 -33 65.5 -56.5t22.5 -52.5q0 -18 -9 -41q-37 -104 -92 -104l-47 -4q-10 0 -10 -8l-53 -224q-4 -12 10 -12h16q154 0 256.5 85t167.5 261q18 53 25.5 92t7.5 70q0 33 -8 54.5t-19 31.5q39 10 71 30.5t61.5 56.5t55 88 t52.5 126q35 96 35 172q0 57 -21 103q-20 47 -51 75.5t-76 59.5q-43 29 -64.5 50t-21.5 50q0 16 9 39q41 109 94 109q31 0 30 -35q0 -18 -8 -41l-20 -64q-4 -14 10 -14h203q6 0 10 6l29 78q33 90 32 160q0 158 -204 157q-143 0 -244.5 -84t-167.5 -262q-31 -84 -31 -155v-13 q2 -57 21 -78q-80 -25 -140.5 -97.5t-111.5 -217.5q-31 -86 -31 -156zM485 483q0 27 19 76q27 72 59.5 102.5t85.5 30.5q63 0 64 -45q0 -23 -21 -80q-25 -70 -57.5 -100.5t-85.5 -30.5q-63 0 -64 47z" />
<glyph unicode="&#xa8;" horiz-adv-x="884" d="M246 1720q-4 -12 10 -12h225q6 0 11 8l79 266q4 13 -10 13h-225q-6 0 -10 -8zM651 1718q-4 -12 11 -12h225q6 0 10 8l80 266q4 13 -10 13h-226q-6 0 -10 -8z" />
<glyph unicode="&#xa9;" horiz-adv-x="1406" d="M186 457q0 -117 34 -209t95.5 -155.5t146.5 -96.5t185 -33h6q117 0 241 48t236.5 139.5t204.5 220.5t148 288q4 14 -10 15h-183q-8 0 -10 -6q-43 -113 -108.5 -207t-143.5 -162t-163 -104.5t-167 -36.5q-139 0 -218 96t-79 258q0 35 3.5 74t13.5 80q4 12 -10 12h-185 q-10 0 -10 -8q-27 -109 -27 -213zM248 788l10 -14h182q6 0 11 6q41 117 105.5 213.5t143 165t165.5 107.5t173 39q135 0 216 -97.5t81 -261.5q0 -35 -4 -70.5t-12 -76.5q-4 -12 10 -13h182q10 0 11 9q27 109 26 213q0 117 -33.5 209t-95 154.5t-145.5 96t-184 33.5 q-121 0 -247 -49t-240 -141t-207 -224.5t-148 -298.5zM553 369q0 -123 164 -123h12q4 0 8 1t8 1q6 0 11 8l47 170q2 8 -4 11t-12.5 -1t-22.5 -4q-18 0 -19 17q0 10 7 32l147 486q10 31 21.5 42t27.5 11q23 0 23 -21q0 -4 -1 -5t-1 -3l-41 -133q-4 -12 10 -12h156q6 0 10 8 l39 127v-2q10 29 13 55.5t3 48.5q0 63 -38 93t-124 30q-113 0 -174 -52t-96 -169l-156 -514v2q-18 -59 -18 -104z" />
<glyph unicode="&#xab;" horiz-adv-x="763" d="M215 526l66 -256q4 -8 10 -8h170q14 0 10 12l-63 250l247 252q4 4 2 11.5t-10 7.5h-170q-6 0 -8 -2l-252 -256q-2 -3 -2 -11zM487 526l64 -256q4 -8 10 -8h172q14 0 10 12l-63 250l248 252q4 4 2 11.5t-10 7.5h-172q-4 0 -9 -4l-250 -256q-2 -3 -2 -9z" />
<glyph unicode="&#xac;" horiz-adv-x="1658" d="M47 -74q-2 -10 4 -10l387 -2q8 0 8 4l62 158h94l-27 -154q-4 -8 5 -8l333 2q92 0 148.5 48t83.5 145l43 133q12 45 12 73q0 61 -55 82q57 23 89 68t46 96l23 78q12 45 12 84q0 61 -35 84l23 84q2 6 -5 6h-157l61 213h154q6 0 6 8l47 160q4 8 -4 8h-148l50 172h161 q4 0 5 4l53 166q0 8 -6 8h-324q-8 0 -8 -6l-107 -344h-75l104 342q2 2 0 5t-8 3h-543q-2 0 -6 -4l-53 -170q-6 -6 10 -6h106l-186 -627h-106q-4 0 -5 -4zM266 94l189 627h102q2 0 6 4l223 731h101l-189 -629h-20q-4 0 -6 -1t-4 -1l-324 -731h-78zM375 339q-2 3 0 5l96 322 l8 4l80 -2q12 0 10 -6l-161 -326q0 -6 -5 -6l-18 6q-8 0 -10 3zM578 250l135 348l-76 -348h-59zM836 485l55 334q0 8 -6 8h-15l82 283h78l-135 -444q0 -6 6 -7q68 0 104.5 -1t55.5 -1q18 0 23.5 -1t9.5 -1h4q25 0 24 -26v-8t-2 -15v-8q0 -14 -10 -29q-16 -57 -28.5 -70.5 t-34.5 -13.5h-211zM895 94l63 213h31q18 0 26.5 -3t8.5 -17q0 -10 -5 -32t-13 -50q-25 -72 -38.5 -91.5t-43.5 -19.5h-29z" />
<glyph unicode="&#xad;" horiz-adv-x="644" d="M186 408q-3 -13 11 -13h401q6 0 10 8l74 246q4 12 -10 13h-402q-6 0 -10 -9z" />
<glyph unicode="&#xae;" horiz-adv-x="1406" d="M186 457q0 -117 34 -209t95.5 -155.5t146.5 -96.5t185 -33h6q117 0 241 48t236.5 139.5t204.5 220.5t148 288q4 14 -10 15h-183q-8 0 -10 -6q-43 -113 -108.5 -207t-143.5 -162t-163 -104.5t-167 -36.5q-139 0 -218 96t-79 258q0 35 3.5 74t13.5 80q4 12 -10 12h-185 q-10 0 -10 -8q-27 -109 -27 -213zM248 788l10 -14h182q6 0 11 6q41 117 105.5 213.5t143 165t165.5 107.5t173 39q135 0 216 -97.5t81 -261.5q0 -35 -4 -70.5t-12 -76.5q-4 -12 10 -13h182q10 0 11 9q27 109 26 213q0 117 -33.5 209t-95 154.5t-145.5 96t-184 33.5 q-121 0 -247 -49t-240 -141t-207 -224.5t-148 -298.5zM569 313l11 -12l2 12h-13zM582 313h129l-2 -8l10 8h-8l184 703q4 8 10 8h39q20 0 30.5 -8t10.5 -31q0 -12 -3 -26.5t-7 -36.5q-16 -57 -31.5 -76t-38.5 -21l2 9l-10 -9h8l-31 -139q31 -10 31 -39q0 -8 -4 -16l2 2 l-74 -293q-6 -10 -6 -18q0 -4 2 -9h-8l10 -6q-2 2 -2 6h129q0 -8 7 -14l8 14h-15v4q0 12 4.5 31t12.5 51l49 191q8 27 11 48t3 38q0 61 -51 72q-8 0 -8 10v2q0 10 8 10q51 10 76.5 47t36.5 76l28 102q10 47 11 72q0 53 -37 73.5t-109 20.5h-186l2 8l-10 -8h8zM862 688 l10 -12l2 10q-4 0 -6 1t-6 1z" />
<glyph unicode="&#xaf;" horiz-adv-x="644" d="M152 1800q4 -4 10 -4l534 -2q4 0 11 6l84 182q6 14 -11 15l-534 2q-4 0 -10 -6l-84 -183q-4 -6 0 -10z" />
<glyph unicode="&#xb0;" horiz-adv-x="698" d="M365 895q0 -61 31.5 -94t82.5 -33h45q6 0 11 6l51 154q4 14 -11 14q-25 0 -24 27q0 8 2 14l78 264v-2q6 18 23.5 33.5t37.5 15.5q14 0 20.5 -7t6.5 -17q0 -6 -4 -19l-78 -262q-6 -27 -39 -43q-6 0 -6 -6l-53 -158q-4 -14 10 -14h35q63 0 125.5 51.5t91.5 149.5l90 295 q12 43 12 79q0 59 -31.5 92t-83.5 33h-104q-63 0 -124.5 -51t-92.5 -149l-90 -295q-12 -43 -12 -78z" />
<glyph unicode="&#xb1;" horiz-adv-x="1140" d="M10 59q-4 -12 10 -12h898q6 0 10 8l69 230q4 12 -10 12h-897q-6 0 -10 -8zM195 797q-4 -12 10 -13h336l-119 -401q-4 -12 10 -12h197q6 0 10 8l121 405h342q6 0 10 9l72 229q4 12 -10 12h-345q-2 0 -3 1t-3 1h-196q-2 0 -3 -1t-3 -1h-345q-6 0 -10 -8zM631 1063 q-4 -12 10 -12h197q6 0 10 8l110 377q4 12 -10 12h-196q-6 0 -11 -8z" />
<glyph unicode="&#xb4;" horiz-adv-x="452" d="M342 1670q2 -7 10 -7l250 2l324 315q4 4 3 11.5t-9 7.5h-246q-6 0 -8 -2l-322 -316q-4 -4 -2 -11z" />
<glyph unicode="&#xb5;" horiz-adv-x="794" d="M-82 -362q-4 -14 10 -15h232q6 0 10 6l125 348q37 12 71.5 39t63.5 62l-27 -74q-4 -14 11 -14h223q6 0 10 6l385 1057q4 14 -10 14h-231q-8 0 -11 -6l-278 -766q-16 -41 -39 -62.5t-45 -21.5q-20 0 -21 22q0 18 13 54l278 766q4 14 -10 14h-232q-8 0 -10 -6z" />
<glyph unicode="&#xb6;" horiz-adv-x="1111" d="M319 -365q-4 -12 11 -12h182q6 0 10 8l330 1094h92l-237 -797q-4 -12 10 -12h180q6 0 10 8l307 1057q4 12 -10 12h-817q-10 0 -10 -10v-14q0 -111 66.5 -172.5t193.5 -65.5zM393 1083q0 -10 10 -10h830q6 0 10 8l39 129q4 12 -10 13h-819q-2 0 -9 -6q-16 -29 -26 -60 t-21 -59v4q-2 -4 -2 -12q0 -2 -1 -3.5t-1 -3.5zM528 1337l9 -16h770q6 0 10 8l39 131q4 12 -10 13h-449q-238 0 -369 -136z" />
<glyph unicode="&#xb7;" horiz-adv-x="466" d="M266 625q-4 -12 10 -13h226q6 0 10 9l80 266q4 12 -10 12h-226q-6 0 -10 -8z" />
<glyph unicode="&#xb8;" horiz-adv-x="460" d="M-147 -403q-4 -8 2 -15q49 -41 149 -41q90 0 164 48.5t104 131.5q8 20 11.5 41t3.5 37q0 47 -24.5 73t-72.5 26h-34l92 96q4 4 2 10t-10 6h-82q-4 0 -8 -4l-156 -178q-6 -6 -2 -10l16 -35q4 -10 12 -6q8 2 11 2q31 8 53 8q43 0 43 -31q0 -14 -8 -32q-14 -35 -45 -53.5 t-60 -18.5q-45 0 -92 26q-10 6 -14 -2z" />
<glyph unicode="&#xbb;" horiz-adv-x="763" d="M121 269.5q2 -7.5 10 -7.5h170q6 0 8 2l254 256q2 2 2 10l-67 256q-5 9 -11 9h-170q-14 0 -10 -13l66 -250l-250 -251q-4 -4 -2 -11.5zM393 269.5q2 -7.5 10 -7.5h170q6 0 9 2l254 256q2 2 2 10l-68 256q-4 9 -10 9h-170q-14 0 -10 -13l63 -250l-248 -251q-4 -4 -2 -11.5 z" />
<glyph unicode="&#xbf;" horiz-adv-x="780" d="M-57 -268q0 -207 231 -207q76 0 139.5 18.5t113.5 59.5t90 109.5t69 166.5v-2l39 123q4 14 -11 14h-227q-6 0 -10 -8l-27 -92v2q-25 -80 -49.5 -110.5t-48.5 -30.5q-27 0 -27 39q0 33 21 94q23 78 65.5 131t94.5 100q53 51 100 104.5t72 131.5l59 207q4 12 -10 12h-228 q-6 0 -10 -8l-35 -115q-25 -82 -66.5 -127t-90.5 -88q-4 -4 -9.5 -8t-9.5 -8h2q-27 -25 -54.5 -55.5t-55 -70.5t-53 -93.5t-48.5 -126.5q-27 -88 -26 -162zM442 762q-3 -12 11 -12h227q6 0 10 8l80 266q4 12 -10 12h-228q-6 0 -10 -8z" />
<glyph unicode="&#xc0;" d="M-4 4q-4 -6 0 -10t10 -4h266q6 0 11 6l100 252h156l-45 -246q-4 -12 10 -12h262q10 0 10 8l230 1462q0 12 -11 13h-338q-4 0 -10 -7zM498 535l221 563l-123 -563h-98zM561 1992q-2 -7 2 -12l316 -315q2 -2 8 -2h248q8 0 10 7t-2 11l-318 316q-2 2 -8 2h-246q-8 0 -10 -7z " />
<glyph unicode="&#xc1;" d="M-4 4q-4 -6 0 -10t10 -4h266q6 0 11 6l100 252h156l-45 -246q-4 -12 10 -12h262q10 0 10 8l230 1462q0 12 -11 13h-338q-4 0 -10 -7zM498 535l221 563l-123 -563h-98zM571 1670q2 -7 11 -7l249 2l324 315q4 4 3 11.5t-9 7.5h-246q-6 0 -8 -2l-322 -316q-4 -4 -2 -11z" />
<glyph unicode="&#xc2;" d="M-4 4q-4 -6 0 -10t10 -4h266q6 0 11 6l100 252h156l-45 -246q-4 -12 10 -12h262q10 0 10 8l230 1462q0 12 -11 13h-338q-4 0 -10 -7zM498 535l221 563l-123 -563h-98zM503 1570q3 -5 9 -5h193q4 0 8 4l211 323l41 -299q0 -8 10 -8h190q10 0 11 12l-76 553q0 8 -10 9h-175 q-4 0 -8 -5l-403 -573q-4 -6 -1 -11z" />
<glyph unicode="&#xc3;" d="M-4 4q-4 -6 0 -10t10 -4h266q6 0 11 6l100 252h156l-45 -246q-4 -12 10 -12h262q10 0 10 8l230 1462q0 12 -11 13h-338q-4 0 -10 -7zM498 535l221 563l-123 -563h-98zM551 1624q0 -8 7 -10t11 4q45 51 77 78.5t61 27.5q27 0 79 -38l21 -15q35 -25 65.5 -38t59.5 -13 q59 0 111.5 38t99.5 99l6 144q0 8 -7 10t-12 -4q-45 -51 -77.5 -79t-61.5 -28q-16 0 -33.5 10.5t-44.5 28.5l-20 14q-35 25 -65.5 38.5t-61.5 13.5q-59 0 -111.5 -38t-97.5 -102z" />
<glyph unicode="&#xc4;" d="M-4 4q-4 -6 0 -10t10 -4h266q6 0 11 6l100 252h156l-45 -246q-4 -12 10 -12h262q10 0 10 8l230 1462q0 12 -11 13h-338q-4 0 -10 -7zM498 535l221 563l-123 -563h-98zM522 1718q-4 -12 10 -12h226q6 0 10 8l80 266q4 13 -10 13h-226q-6 0 -10 -8zM928 1716q-4 -12 10 -12 h225q6 0 11 8l79 266q4 13 -10 13h-225q-6 0 -10 -9z" />
<glyph unicode="&#xc5;" d="M-4 4q-4 -6 0 -10t10 -4h266q6 0 11 6l100 252h156l-45 -246q-4 -12 10 -12h262q10 0 10 8l230 1462q0 12 -11 13h-32q45 23 83 67.5t58 114.5l90 295q12 43 12 80q0 59 -31.5 91.5t-82.5 32.5h-105q-63 0 -124.5 -51t-92.5 -149l-90 -295q-12 -43 -12 -78q0 -76 49 -108 h-60q-4 0 -10 -7zM498 535l221 563l-123 -563h-98zM842 1473l47 141q4 14 -10 14q-25 0 -25 27q0 8 2 14l78 264v-2q6 18 23.5 33.5t37.5 15.5q14 0 20.5 -7t6.5 -17q0 -6 -4 -19l-78 -262q-6 -27 -39 -43q-6 0 -6 -6z" />
<glyph unicode="&#xc6;" horiz-adv-x="1128" d="M-4 4q-8 -14 8 -14h248q4 0 10 6l119 250h166l-68 -244q-4 -12 10 -12h488q6 0 10 8l76 266q4 12 -10 12h-240l100 345h232q6 0 10 8l74 266q4 12 -10 12h-228l80 279h244q6 0 10 8l76 266q4 12 -10 13h-648q-2 0 -8 -7zM512 532l287 609l-174 -609h-113z" />
<glyph unicode="&#xc7;" horiz-adv-x="837" d="M31 -369q-4 -8 2 -14q49 -41 149 -41q90 0 164 48t105 132q8 20 11 41t3 37q0 47 -24.5 72.5t-71.5 25.5h-35l28 29h33q6 0 12.5 1t12.5 1t10 8l76 277q2 8 -3 11t-11 -1q-20 -10 -41 -10q-37 0 -37 33q0 16 10 57l235 782q16 55 38 74.5t51 19.5q16 0 28 -9t12 -25 q0 -2 -4 -19l-63 -219q-4 -12 10 -12h254q6 0 10 8l62 207q29 98 28 164q0 100 -62 146t-196 46q-176 0 -277.5 -83t-154.5 -269l-250 -832q-31 -98 -30 -167q0 -147 151 -179l-94 -108q-6 -6 -2 -10l16 -35q4 -10 13 -6q8 2 10 2q31 8 53 8q43 0 43 -31q0 -14 -8 -33 q-14 -35 -45 -53t-59 -18q-45 0 -93 26q-10 6 -14 -2z" />
<glyph unicode="&#xc8;" horiz-adv-x="739" d="M76 10l10 -12l4 12h-14zM90 10h500l-2 -8l10 8h-8l74 246h-254q-14 0 -11 12l109 365q4 8 10 8h248l-2 -8l10 8h-8l76 246h-242q-14 0 -10 12l88 299q4 8 10 8h260l76 246h-500l2 8l-10 -8h8zM534.5 1992q-2.5 -7 2.5 -12l315 -315q2 -2 8 -2h248q8 0 10 7t-2 11 l-317 316q-2 2 -8 2h-246q-8 0 -10.5 -7zM664 256h14l-10 12zM842 887h14l-10 12zM946 1198l10 8h-8zM1024 1452h14l-10 12z" />
<glyph unicode="&#xc9;" horiz-adv-x="739" d="M66 2q-4 -12 10 -12h522q6 0 10 8l80 266q4 12 -10 12h-254l102 345h248q6 0 10 8l82 266q4 12 -10 12h-242l82 279h260q6 0 11 8l82 266q4 12 -11 13h-522q-6 -1 -10 -9zM569 1670q2 -7 11 -7l249 2l324 315q4 4 3 11.5t-9 7.5h-246q-6 0 -8 -2l-322 -316q-4 -4 -2 -11z " />
<glyph unicode="&#xca;" horiz-adv-x="739" d="M66 2q-4 -12 10 -12h522q6 0 10 8l80 266q4 12 -10 12h-254l102 345h248q6 0 10 8l82 266q4 12 -10 12h-242l82 279h260q6 0 11 8l82 266q4 12 -11 13h-522q-6 -1 -10 -9zM456 1572q3 -5 9 -5h192q4 0 9 4l211 323l41 -299q0 -8 10 -8h190q10 0 10 12l-75 553q0 8 -11 9 h-174q-4 0 -8 -4l-403 -574q-4 -6 -1 -11z" />
<glyph unicode="&#xcb;" horiz-adv-x="739" d="M66 2q-4 -12 10 -12h522q6 0 10 8l80 266q4 12 -10 12h-254l102 345h248q6 0 10 8l82 266q4 12 -10 12h-242l82 279h260q6 0 11 8l82 266q4 12 -11 13h-522q-6 -1 -10 -9zM492 1722q-4 -12 10 -12h225q6 0 10 8l80 267q4 12 -10 12h-225q-6 0 -11 -8zM897 1720 q-4 -12 10 -12h226q6 0 10 8l80 266q3 13 -11 13h-225q-6 0 -10 -8z" />
<glyph unicode="&#xcc;" horiz-adv-x="515" d="M74 2q-4 -12 10 -12h254q6 0 10 8l440 1462q4 12 -10 13h-254q-6 0 -10 -9zM424 1992q-2 -7 2 -12l315 -315q2 -2 9 -2h247q8 0 10.5 7t-1.5 11l-318 316q-2 2 -8 2h-246q-8 0 -10 -7z" />
<glyph unicode="&#xcd;" horiz-adv-x="515" d="M74 2q-4 -12 10 -12h254q6 0 10 8l440 1462q4 12 -10 13h-254q-6 0 -10 -9zM434 1670q2 -7 10 -7l250 2l324 315q4 4 3 11.5t-9 7.5h-246q-6 0 -8 -2l-322 -316q-4 -4 -2 -11z" />
<glyph unicode="&#xce;" horiz-adv-x="515" d="M74 2q-4 -12 10 -12h254q6 0 10 8l440 1462q4 12 -10 13h-254q-6 0 -10 -9zM335 1572q3 -5 9 -5h193q4 0 8 4l211 323l41 -299q0 -8 10 -8h190q10 0 11 12l-76 553q0 8 -10 9h-174q-4 0 -9 -4l-403 -574q-4 -6 -1 -11z" />
<glyph unicode="&#xcf;" horiz-adv-x="515" d="M74 2q-4 -12 10 -12h254q6 0 10 8l440 1462q4 12 -10 13h-254q-6 0 -10 -9zM356 1722q-4 -12 11 -12h225q6 0 10 8l80 267q4 12 -10 12h-226q-6 0 -10 -8zM762 1720q-4 -12 10 -12h225q6 0 11 8l79 266q4 13 -10 13h-225q-6 0 -10 -8z" />
<glyph unicode="&#xd0;" d="M117 653q-4 -12 10 -12h401q6 0 11 8l73 246q4 12 -10 12h-401q-6 0 -11 -8zM379 4q-4 -14 10 -14q86 0 153.5 15t121 55t94.5 109t73 173l232 774q16 53 24.5 96t8.5 78q0 106 -69 144.5t-198 38.5h-313q-6 0 -10 -9l-76 -264q-4 -12 10 -12l293 -2q55 0 55 -39 q0 -14 -2 -23q-4 -35 -17 -83t-42 -134q-25 -80 -63.5 -201.5t-92.5 -310.5v2q-20 -59 -37.5 -85.5t-41.5 -32.5q-8 0 -9 -7z" />
<glyph unicode="&#xd1;" horiz-adv-x="1029" d="M66 2q-4 -12 10 -12h241q6 0 11 8l280 934l-80 -932q0 -10 11 -10h319q6 0 10 8l441 1462q4 12 -11 13h-239q-6 0 -10 -9l-287 -950l88 948q0 10 -10 11h-324q-6 0 -10 -9zM618 1626q0 -8 7.5 -10t11.5 4q45 51 76.5 78.5t60.5 27.5q27 0 80 -38l20 -15q35 -25 66 -38 t59 -13q59 0 111.5 38t99.5 99l7 144q0 8 -7.5 10t-11.5 -4q-45 -51 -78 -79t-61 -28q-16 0 -33.5 10.5t-44.5 28.5l-20 14q-35 25 -66 38.5t-61 13.5q-59 0 -111.5 -38t-97.5 -102z" />
<glyph unicode="&#xd2;" d="M113 143q0 -106 68.5 -144t197.5 -38q84 0 151.5 15.5t121 55.5t94 108.5t73.5 172.5l250 832q31 104 31 174q0 106 -67.5 144t-196.5 38q-86 0 -153 -15.5t-120 -55t-94 -108.5t-74 -173l-250 -832q-16 -53 -24 -96t-8 -78zM412 279q0 4 2 14t6 22l250 828q16 72 86 71 q45 0 45 -32q0 -14 -6 -35l-250 -828v3q-14 -41 -32.5 -57.5t-53.5 -16.5q-47 0 -47 31zM559 1987.5q-2 -7.5 2 -11.5l316 -315q2 -2 8 -2h248q8 0 10 7t-2 11l-318 316q-2 2 -8 2h-246q-8 0 -10 -7.5z" />
<glyph unicode="&#xd3;" d="M113 143q0 -106 68.5 -144t197.5 -38q84 0 151.5 15.5t121 55.5t94 108.5t73.5 172.5l250 832q31 104 31 174q0 106 -67.5 144t-196.5 38q-86 0 -153 -15.5t-120 -55t-94 -108.5t-74 -173l-250 -832q-16 -53 -24 -96t-8 -78zM412 279q0 4 2 14t6 22l250 828q16 72 86 71 q45 0 45 -32q0 -14 -6 -35l-250 -828v3q-14 -41 -32.5 -57.5t-53.5 -16.5q-47 0 -47 31zM616 1670q2 -7 11 -7l250 2l323 315q4 4 3 11.5t-9 7.5h-246q-6 0 -8 -2l-322 -316q-4 -4 -2 -11z" />
<glyph unicode="&#xd4;" d="M113 143q0 -106 68.5 -144t197.5 -38q84 0 151.5 15.5t121 55.5t94 108.5t73.5 172.5l250 832q31 104 31 174q0 106 -67.5 144t-196.5 38q-86 0 -153 -15.5t-120 -55t-94 -108.5t-74 -173l-250 -832q-16 -53 -24 -96t-8 -78zM412 279q0 4 2 14t6 22l250 828q16 72 86 71 q45 0 45 -32q0 -14 -6 -35l-250 -828v3q-14 -41 -32.5 -57.5t-53.5 -16.5q-47 0 -47 31zM503 1572q3 -5 9 -5h193q4 0 8 4l211 323l41 -299q0 -8 10 -8h190q10 0 11 12l-76 553q0 8 -10 9h-175q-4 0 -8 -4l-403 -574q-4 -6 -1 -11z" />
<glyph unicode="&#xd5;" d="M113 143q0 -106 68.5 -144t197.5 -38q84 0 151.5 15.5t121 55.5t94 108.5t73.5 172.5l250 832q31 104 31 174q0 106 -67.5 144t-196.5 38q-86 0 -153 -15.5t-120 -55t-94 -108.5t-74 -173l-250 -832q-16 -53 -24 -96t-8 -78zM412 279q0 4 2 14t6 22l250 828q16 72 86 71 q45 0 45 -32q0 -14 -6 -35l-250 -828v3q-14 -41 -32.5 -57.5t-53.5 -16.5q-47 0 -47 31zM553 1626q0 -8 7 -10t11 4q45 51 77 78.5t61 27.5q27 0 79 -38l21 -15q35 -25 65.5 -38t59.5 -13q59 0 111.5 38t99.5 99l6 144q0 8 -7 10t-11 -4q-45 -51 -78 -79t-62 -28 q-16 0 -33.5 10.5t-44.5 28.5l-20 14q-35 25 -65.5 38.5t-61.5 13.5q-59 0 -111.5 -38t-97.5 -102z" />
<glyph unicode="&#xd6;" d="M113 143q0 -106 68.5 -144t197.5 -38q84 0 151.5 15.5t121 55.5t94 108.5t73.5 172.5l250 832q31 104 31 174q0 106 -67.5 144t-196.5 38q-86 0 -153 -15.5t-120 -55t-94 -108.5t-74 -173l-250 -832q-16 -53 -24 -96t-8 -78zM412 279q0 4 2 14t6 22l250 828q16 72 86 71 q45 0 45 -32q0 -14 -6 -35l-250 -828v3q-14 -41 -32.5 -57.5t-53.5 -16.5q-47 0 -47 31zM545 1720q-4 -12 10 -12h225q6 0 11 8l79 266q4 13 -10 13h-225q-6 0 -10 -8zM950 1718q-4 -12 11 -12h225q6 0 10 8l80 266q4 13 -10 13h-226q-6 0 -10 -8z" />
<glyph unicode="&#xd7;" horiz-adv-x="1079" d="M117 152l65 -156q4 -12 17 -4l424 362l61 -139q4 -12 16 -4l179 158q6 6 4 12l-62 151l426 361q6 6 4 12l-65 156q-4 12 -17 4l-424 -365l-157 361q-4 12 -17 4l-180 -156q-6 -6 -4 -12l160 -367l-426 -366q-6 -6 -4 -12zM709 158l71 -162q4 -12 17 -4l180 155q6 6 4 13 l-72 168q-4 12 -16 4l-180 -162q-6 -6 -4 -12z" />
<glyph unicode="&#xd8;" d="M113 143q0 -96 55 -136t164 -44l-58 -190q-4 -12 11 -13h59q6 0 10 9l60 192q76 2 137 20.5t110.5 58.5t88 106.5t69.5 166.5l250 832q31 104 31 174q0 98 -56.5 137t-160.5 43l47 154q4 12 -10 12h-62q-6 0 -10 -8l-49 -156q-78 -4 -139.5 -21.5t-110.5 -58.5 t-86 -107.5t-68 -164.5l-250 -832v2q-33 -100 -32 -176zM412 276q0 14 8 37v2l250 828q12 49 41 63l-289 -952q-10 8 -10 22zM504 258l289 946q8 -12 8 -22q0 -14 -6 -35l-250 -828v3q-18 -49 -41 -64z" />
<glyph unicode="&#xd9;" d="M113 143q0 -106 68.5 -144t197.5 -38q84 0 151.5 15.5t121 55.5t94 108.5t73.5 172.5l344 1147q4 12 -10 13h-254q-6 0 -10 -9l-332 -1102q-23 -72 -43 -93t-55 -21q-23 0 -33 6t-10 27q0 23 16 77l332 1102q4 12 -10 13h-254q-6 0 -11 -9l-344 -1147q-16 -53 -24 -96 t-8 -78zM528.5 1992q-2.5 -7 1.5 -12l316 -315q2 -2 8 -2h248q8 0 10 7t-2 11l-317 316q-2 2 -9 2h-245q-8 0 -10.5 -7z" />
<glyph unicode="&#xda;" d="M113 143q0 -106 68.5 -144t197.5 -38q84 0 151.5 15.5t121 55.5t94 108.5t73.5 172.5l344 1147q4 12 -10 13h-254q-6 0 -10 -9l-332 -1102q-23 -72 -43 -93t-55 -21q-23 0 -33 6t-10 27q0 23 16 77l332 1102q4 12 -10 13h-254q-6 0 -11 -9l-344 -1147q-16 -53 -24 -96 t-8 -78zM604 1668q2 -7 10 -7l250 2l324 315q4 4 3 11.5t-9 7.5h-246q-6 0 -8 -2l-322 -316q-4 -4 -2 -11z" />
<glyph unicode="&#xdb;" d="M113 143q0 -106 68.5 -144t197.5 -38q84 0 151.5 15.5t121 55.5t94 108.5t73.5 172.5l344 1147q4 12 -10 13h-254q-6 0 -10 -9l-332 -1102q-23 -72 -43 -93t-55 -21q-23 0 -33 6t-10 27q0 23 16 77l332 1102q4 12 -10 13h-254q-6 0 -11 -9l-344 -1147q-16 -53 -24 -96 t-8 -78zM507 1572q3 -5 9 -5h193q4 0 8 4l211 323l41 -299q0 -8 10 -8h190q10 0 11 12l-76 553q0 8 -10 9h-174q-4 0 -9 -4l-403 -574q-4 -6 -1 -11z" />
<glyph unicode="&#xdc;" d="M113 143q0 -106 68.5 -144t197.5 -38q84 0 151.5 15.5t121 55.5t94 108.5t73.5 172.5l344 1147q4 12 -10 13h-254q-6 0 -10 -9l-332 -1102q-23 -72 -43 -93t-55 -21q-23 0 -33 6t-10 27q0 23 16 77l332 1102q4 12 -10 13h-254q-6 0 -11 -9l-344 -1147q-16 -53 -24 -96 t-8 -78zM539 1729q-4 -12 10 -13h225q6 0 10 8l80 267q4 12 -10 12h-225q-6 0 -11 -8zM944 1726q-4 -12 10 -12h226q6 0 10 8l80 267q4 12 -10 12h-226q-6 0 -10 -8z" />
<glyph unicode="&#xdd;" horiz-adv-x="902" d="M264 2q-4 -12 10 -12h254q6 0 11 8l168 555l540 903q8 16 -8 17h-266q-2 0 -8 -7l-271 -497l29 493q0 10 -10 11h-267q-10 0 -10 -11l-4 -903zM631 1670q2 -7 10 -7l250 2l323 315q4 4 3.5 11.5t-9.5 7.5h-245q-7 0 -9 -2l-321 -316q-4 -4 -2 -11z" />
<glyph unicode="&#xde;" horiz-adv-x="794" d="M61 2q-4 -12 11 -12h239q6 0 11 8l67 225h47q90 0 155.5 15.5t114 54.5t82 105.5t62.5 166.5l82 279q16 55 24.5 99t8.5 81q0 96 -60.5 131t-193.5 35h-43l80 270q4 12 -11 13h-239q-6 0 -11 -9zM471 510l115 393h28q45 0 50 -29v-10q0 -43 -31 -155q-20 -66 -35.5 -108 t-30.5 -58q-25 -33 -73 -33h-23z" />
<glyph unicode="&#xdf;" horiz-adv-x="794" d="M49 2q-4 -12 10 -12h232q6 0 10 8l285 979q4 12 -11 12h-231q-6 0 -10 -8zM276 -295q-4 -12 11 -12h135q80 0 144.5 73.5t103.5 202.5l131 453q16 59 16 100q0 111 -94 133q43 20 83 67.5t73.5 107t59.5 123t42 116.5q20 70 20 150q0 57 -13 108t-39.5 90t-66.5 61.5 t-94 22.5q-74 0 -138 -25.5t-115.5 -70.5t-89 -106.5t-58.5 -133.5l-18 -63q-4 -12 10 -12h231q6 0 11 6l10 30q33 117 98 117q18 0 46 -14.5t28 -67.5q0 -23 -7.5 -55.5t-25.5 -77.5q-10 -25 -31.5 -66.5t-47 -82.5t-51.5 -71t-44 -30q-6 0 -10 -8l-72 -250q-4 -12 10 -12 h27q12 0 12 -19q0 -16 -8 -38l-123 -418q-16 -61 -43 -62h-29q-6 0 -10 -8z" />
<glyph unicode="&#xe0;" d="M6 10l10 -14l7 14h-17zM23 10h241l-2 -6l10 6h-8l101 252q2 6 10 6h176q14 0 10 -12l-45 -246h240l227 1442h-319l4 6l-11 -6h7zM471 528l272 693q2 6 11 6h2q14 0 10 -13l-152 -692q0 -8 -10 -8h-123q-14 0 -10 14zM504 10l10 -12l2 12h-12zM561 1992q-2 -7 2 -12 l316 -315q2 -2 8 -2h248q8 0 10 7t-2 11l-318 316q-2 2 -8 2h-246q-8 0 -10 -7zM756 2l10 8h-10v-8zM983 1452h12l-10 12z" />
<glyph unicode="&#xe1;" d="M-4 4q-4 -6 0 -10t10 -4h266q6 0 11 6l100 252h156l-45 -246q-4 -12 10 -12h262q10 0 10 8l230 1462q0 12 -11 13h-338q-4 0 -10 -7zM498 535l221 563l-123 -563h-98zM571 1670q2 -7 11 -7l249 2l324 315q4 4 3 11.5t-9 7.5h-246q-6 0 -8 -2l-322 -316q-4 -4 -2 -11z" />
<glyph unicode="&#xe2;" d="M-4 4q-4 -6 0 -10t10 -4h266q6 0 11 6l100 252h156l-45 -246q-4 -12 10 -12h262q10 0 10 8l230 1462q0 12 -11 13h-338q-4 0 -10 -7zM498 535l221 563l-123 -563h-98zM503 1570q3 -5 9 -5h193q4 0 8 4l211 323l41 -299q0 -8 10 -8h190q10 0 11 12l-76 553q0 8 -10 9h-175 q-4 0 -8 -5l-403 -573q-4 -6 -1 -11z" />
<glyph unicode="&#xe3;" d="M-4 4q-4 -6 0 -10t10 -4h266q6 0 11 6l100 252h156l-45 -246q-4 -12 10 -12h262q10 0 10 8l230 1462q0 12 -11 13h-338q-4 0 -10 -7zM498 535l221 563l-123 -563h-98zM551 1624q0 -8 7 -10t11 4q45 51 77 78.5t61 27.5q27 0 79 -38l21 -15q35 -25 65.5 -38t59.5 -13 q59 0 111.5 38t99.5 99l6 144q0 8 -7 10t-12 -4q-45 -51 -77.5 -79t-61.5 -28q-16 0 -33.5 10.5t-44.5 28.5l-20 14q-35 25 -65.5 38.5t-61.5 13.5q-59 0 -111.5 -38t-97.5 -102z" />
<glyph unicode="&#xe4;" d="M-4 4q-4 -6 0 -10t10 -4h266q6 0 11 6l100 252h156l-45 -246q-4 -12 10 -12h262q10 0 10 8l230 1462q0 12 -11 13h-338q-4 0 -10 -7zM498 535l221 563l-123 -563h-98zM522 1718q-4 -12 10 -12h226q6 0 10 8l80 266q4 13 -10 13h-226q-6 0 -10 -8zM928 1716q-4 -12 10 -12 h225q6 0 11 8l79 266q4 13 -10 13h-225q-6 0 -10 -9z" />
<glyph unicode="&#xe5;" d="M-4 4q-4 -6 0 -10t10 -4h266q6 0 11 6l100 252h156l-45 -246q-4 -12 10 -12h262q10 0 10 8l230 1462q0 12 -11 13h-32q45 23 82.5 67.5t58.5 114.5l90 295q12 43 12 80q0 59 -31.5 91.5t-82.5 32.5h-105q-63 0 -124.5 -51t-92.5 -149l-90 -295q-12 -43 -12 -78 q0 -76 49 -108h-60q-4 0 -10 -7zM498 535l221 563l-123 -563h-98zM842 1473l47 141q4 14 -10 14q-25 0 -25 27q0 8 2 14l78 264v-2q6 18 23.5 33.5t37.5 15.5q14 0 20.5 -7t6.5 -17q0 -6 -4 -19l-78 -262q-6 -27 -39 -43q-6 0 -6 -6z" />
<glyph unicode="&#xe6;" horiz-adv-x="1128" d="M-4 4q-8 -14 8 -14h248q4 0 10 6l119 250h166l-68 -244q-4 -12 10 -12h488q6 0 10 8l76 266q4 12 -10 12h-240l100 345h232q6 0 10 8l74 266q4 12 -10 12h-228l80 279h244q6 0 10 8l76 266q4 12 -10 13h-648q-2 0 -8 -7zM512 532l287 609l-174 -609h-113z" />
<glyph unicode="&#xe7;" horiz-adv-x="837" d="M31 -369q-4 -8 2 -14q49 -41 149 -41q90 0 164 48t105 132q8 20 11 41t3 37q0 47 -24.5 72.5t-71.5 25.5h-35l26 29h11h24q6 0 12.5 1t12.5 1t10 8l76 277q2 8 -3 11t-11 -1q-20 -10 -41 -10q-37 0 -37 33q0 16 10 57l235 782q16 55 38 74.5t51 19.5q16 0 28 -9t12 -25 q0 -2 -4 -19l-63 -219q-4 -12 10 -12h254q6 0 10 8l62 207q29 98 28 164q0 100 -62 146t-196 46q-176 0 -277.5 -83t-154.5 -269l-250 -832q-31 -98 -30 -167q0 -147 151 -179l-94 -108q-6 -6 -2 -10l16 -35q4 -10 13 -6q8 2 10 2q31 8 53 8q43 0 43 -31q0 -14 -8 -33 q-14 -35 -45 -53t-59 -18q-45 0 -93 26q-10 6 -14 -2z" />
<glyph unicode="&#xe8;" horiz-adv-x="739" d="M66 2q-4 -12 10 -12h522q6 0 10 8l80 266q4 12 -10 12h-254l102 345h248q6 0 10 8l82 266q4 12 -10 12h-242l82 279h260q6 0 11 8l82 266q4 12 -11 13h-522q-6 -1 -10 -9zM534.5 1992q-2.5 -7 2.5 -12l315 -315q2 -2 8 -2h248q8 0 10 7t-2 11l-317 316q-2 2 -8 2h-246 q-8 0 -10.5 -7z" />
<glyph unicode="&#xe9;" horiz-adv-x="739" d="M66 2q-4 -12 10 -12h522q6 0 10 8l80 266q4 12 -10 12h-254l102 345h248q6 0 10 8l82 266q4 12 -10 12h-242l82 279h260q6 0 11 8l82 266q4 12 -11 13h-522q-6 -1 -10 -9zM569 1670q2 -7 11 -7l249 2l324 315q4 4 3 11.5t-9 7.5h-246q-6 0 -8 -2l-322 -316q-4 -4 -2 -11z " />
<glyph unicode="&#xea;" horiz-adv-x="739" d="M66 2q-4 -12 10 -12h522q6 0 10 8l80 266q4 12 -10 12h-254l102 345h248q6 0 10 8l82 266q4 12 -10 12h-242l82 279h260q6 0 11 8l82 266q4 12 -11 13h-522q-6 -1 -10 -9zM456 1572q3 -5 9 -5h192q4 0 9 4l211 323l41 -299q0 -8 10 -8h190q10 0 10 12l-75 553q0 8 -11 9 h-174q-4 0 -8 -4l-403 -574q-4 -6 -1 -11z" />
<glyph unicode="&#xeb;" horiz-adv-x="739" d="M66 2q-4 -12 10 -12h522q6 0 10 8l80 266q4 12 -10 12h-254l102 345h248q6 0 10 8l82 266q4 12 -10 12h-242l82 279h260q6 0 11 8l82 266q4 12 -11 13h-522q-6 -1 -10 -9zM492 1722q-4 -12 10 -12h225q6 0 10 8l80 267q4 12 -10 12h-225q-6 0 -11 -8zM897 1720 q-4 -12 10 -12h226q6 0 10 8l80 266q3 13 -11 13h-225q-6 0 -10 -8z" />
<glyph unicode="&#xec;" horiz-adv-x="515" d="M84 10l10 -12l4 12h-14zM98 10h232l-2 -8l10 8h-8l434 1442h-232l3 8l-11 -8h8zM424 1992q-2 -7 2 -12l315 -315q2 -2 9 -2h247q8 0 10.5 7t-1.5 11l-318 316q-2 2 -8 2h-246q-8 0 -10 -7zM764 1452h14l-10 12z" />
<glyph unicode="&#xed;" horiz-adv-x="515" d="M74 2q-4 -12 10 -12h254q6 0 10 8l440 1462q4 12 -10 13h-254q-6 0 -10 -9zM434 1670q2 -7 10 -7l250 2l324 315q4 4 3 11.5t-9 7.5h-246q-6 0 -8 -2l-322 -316q-4 -4 -2 -11z" />
<glyph unicode="&#xee;" horiz-adv-x="515" d="M74 2q-4 -12 10 -12h254q6 0 10 8l440 1462q4 12 -10 13h-254q-6 0 -10 -9zM335 1572q3 -5 9 -5h193q4 0 8 4l211 323l41 -299q0 -8 10 -8h190q10 0 11 12l-76 553q0 8 -10 9h-174q-4 0 -9 -4l-403 -574q-4 -6 -1 -11z" />
<glyph unicode="&#xef;" horiz-adv-x="515" d="M74 2q-4 -12 10 -12h254q6 0 10 8l440 1462q4 12 -10 13h-254q-6 0 -10 -9zM356 1722q-4 -12 11 -12h225q6 0 10 8l80 267q4 12 -10 12h-226q-6 0 -10 -8zM762 1720q-4 -12 10 -12h225q6 0 11 8l79 266q4 13 -10 13h-225q-6 0 -10 -8z" />
<glyph unicode="&#xf0;" d="M117 653q-4 -12 10 -12h401q6 0 11 8l73 246q4 12 -10 12h-401q-6 0 -11 -8zM379 4q-4 -14 10 -14q86 0 153.5 15t121 55t94.5 109t73 173l232 774q16 53 24.5 96t8.5 78q0 106 -69 144.5t-198 38.5h-313q-6 0 -10 -9l-76 -264q-4 -12 10 -12l293 -2q55 0 55 -39 q0 -14 -2 -23q-4 -35 -17 -83t-42 -134q-25 -80 -63.5 -201.5t-92.5 -310.5v2q-20 -59 -37.5 -85.5t-41.5 -32.5q-8 0 -9 -7z" />
<glyph unicode="&#xf1;" horiz-adv-x="1029" d="M66 2q-4 -12 10 -12h241q6 0 11 8l280 934l-80 -932q0 -10 11 -10h319q6 0 10 8l441 1462q4 12 -11 13h-239q-6 0 -10 -9l-287 -950l88 948q0 10 -10 11h-324q-6 0 -10 -9zM618 1626q0 -8 7.5 -10t11.5 4q45 51 76.5 78.5t60.5 27.5q27 0 80 -38l20 -15q35 -25 66 -38 t59 -13q59 0 111.5 38t99.5 99l7 144q0 8 -7.5 10t-11.5 -4q-45 -51 -78 -79t-61 -28q-16 0 -33.5 10.5t-44.5 28.5l-20 14q-35 25 -66 38.5t-61 13.5q-59 0 -111.5 -38t-97.5 -102z" />
<glyph unicode="&#xf2;" d="M133 143q0 -94 62.5 -127.5t183.5 -33.5q80 0 144.5 14t115.5 52t90 103.5t70 165.5l250 832q31 104 30 170q0 94 -61.5 128t-181.5 34q-82 0 -146.5 -14.5t-115 -52.5t-89 -103.5t-69.5 -165.5l-250 -832q-16 -53 -24.5 -95t-8.5 -75zM391 279q0 10 2 19t6 21l250 828 q12 47 37 67.5t70 20.5q66 0 65 -53q0 -18 -6 -39l-250 -830q-16 -47 -39.5 -66.5t-66.5 -19.5q-68 0 -68 52zM559 1987.5q-2 -7.5 2 -11.5l316 -315q2 -2 8 -2h248q8 0 10 7t-2 11l-318 316q-2 2 -8 2h-246q-8 0 -10 -7.5z" />
<glyph unicode="&#xf3;" d="M113 143q0 -106 68.5 -144t197.5 -38q84 0 151.5 15.5t121 55.5t94 108.5t73.5 172.5l250 832q31 104 31 174q0 106 -67.5 144t-196.5 38q-86 0 -153 -15.5t-120 -55t-94 -108.5t-74 -173l-250 -832q-16 -53 -24 -96t-8 -78zM412 279q0 4 2 14t6 22l250 828q16 72 86 71 q45 0 45 -32q0 -14 -6 -35l-250 -828v3q-14 -41 -32.5 -57.5t-53.5 -16.5q-47 0 -47 31zM616 1670q2 -7 11 -7l250 2l323 315q4 4 3 11.5t-9 7.5h-246q-6 0 -8 -2l-322 -316q-4 -4 -2 -11z" />
<glyph unicode="&#xf4;" d="M113 143q0 -106 68.5 -144t197.5 -38q84 0 151.5 15.5t121 55.5t94 108.5t73.5 172.5l250 832q31 104 31 174q0 106 -67.5 144t-196.5 38q-86 0 -153 -15.5t-120 -55t-94 -108.5t-74 -173l-250 -832q-16 -53 -24 -96t-8 -78zM412 279q0 4 2 14t6 22l250 828q16 72 86 71 q45 0 45 -32q0 -14 -6 -35l-250 -828v3q-14 -41 -32.5 -57.5t-53.5 -16.5q-47 0 -47 31zM503 1572q3 -5 9 -5h193q4 0 8 4l211 323l41 -299q0 -8 10 -8h190q10 0 11 12l-76 553q0 8 -10 9h-175q-4 0 -8 -4l-403 -574q-4 -6 -1 -11z" />
<glyph unicode="&#xf5;" d="M113 143q0 -106 68.5 -144t197.5 -38q84 0 151.5 15.5t121 55.5t94 108.5t73.5 172.5l250 832q31 104 31 174q0 106 -67.5 144t-196.5 38q-86 0 -153 -15.5t-120 -55t-94 -108.5t-74 -173l-250 -832q-16 -53 -24 -96t-8 -78zM412 279q0 4 2 14t6 22l250 828q16 72 86 71 q45 0 45 -32q0 -14 -6 -35l-250 -828v3q-14 -41 -32.5 -57.5t-53.5 -16.5q-47 0 -47 31zM553 1626q0 -8 7 -10t11 4q45 51 77 78.5t61 27.5q27 0 79 -38l21 -15q35 -25 65.5 -38t59.5 -13q59 0 111.5 38t99.5 99l6 144q0 8 -7 10t-11 -4q-45 -51 -78 -79t-62 -28 q-16 0 -33.5 10.5t-44.5 28.5l-20 14q-35 25 -65.5 38.5t-61.5 13.5q-59 0 -111.5 -38t-97.5 -102z" />
<glyph unicode="&#xf6;" d="M113 143q0 -106 68.5 -144t197.5 -38q84 0 151.5 15.5t121 55.5t94 108.5t73.5 172.5l250 832q31 104 31 174q0 106 -67.5 144t-196.5 38q-86 0 -153 -15.5t-120 -55t-94 -108.5t-74 -173l-250 -832q-16 -53 -24 -96t-8 -78zM412 279q0 4 2 14t6 22l250 828q16 72 86 71 q45 0 45 -32q0 -14 -6 -35l-250 -828v3q-14 -41 -32.5 -57.5t-53.5 -16.5q-47 0 -47 31zM545 1720q-4 -12 10 -12h225q6 0 11 8l79 266q4 13 -10 13h-225q-6 0 -10 -8zM950 1718q-4 -12 11 -12h225q6 0 10 8l80 266q4 13 -10 13h-226q-6 0 -10 -8z" />
<glyph unicode="&#xf7;" horiz-adv-x="1029" d="M229 520q-3 -12 11 -12h776q6 0 10 8l74 246q4 12 -10 12h-777q-6 0 -10 -8zM414 145q-4 -12 10 -12h225q6 0 10 8l80 267q4 12 -10 12h-225q-6 0 -10 -8zM596 879q-4 -12 10 -13h225q6 0 11 8l80 267q3 12 -11 12h-225q-6 0 -10 -8z" />
<glyph unicode="&#xf8;" d="M113 143q0 -96 55 -136t164 -44l-58 -190q-4 -12 11 -13h59q6 0 10 9l60 192q76 2 137 20.5t110.5 58.5t88 106.5t69.5 166.5l250 832q31 104 31 174q0 98 -56.5 137t-160.5 43l47 154q4 12 -10 12h-62q-6 0 -10 -8l-49 -156q-78 -4 -139.5 -21.5t-110.5 -58.5 t-86 -107.5t-68 -164.5l-250 -832v2q-33 -100 -32 -176zM412 276q0 14 8 37v2l250 828q12 49 41 63l-289 -952q-10 8 -10 22zM504 258l289 946q8 -12 8 -22q0 -14 -6 -35l-250 -828v3q-18 -49 -41 -64z" />
<glyph unicode="&#xf9;" d="M133 143q0 -94 62.5 -127.5t183.5 -33.5q80 0 144.5 14t115.5 52t90 103.5t70 165.5l340 1135h-232l2 8l-10 -8h8l-329 -1094q-25 -82 -50.5 -106.5t-68.5 -24.5q-31 0 -47.5 10.5t-16.5 43.5q0 27 17 81l327 1090h-231l2 8l-10 -8h8l-342 -1139q-16 -53 -24.5 -95 t-8.5 -75zM528.5 1992q-2.5 -7 1.5 -12l316 -315q2 -2 8 -2h248q8 0 10 7t-2 11l-317 316q-2 2 -9 2h-245q-8 0 -10.5 -7zM739 1452h15l-11 12zM1139 1452h14l-10 12z" />
<glyph unicode="&#xfa;" d="M113 143q0 -106 68.5 -144t197.5 -38q84 0 151.5 15.5t121 55.5t94 108.5t73.5 172.5l344 1147q4 12 -10 13h-254q-6 0 -10 -9l-332 -1102q-23 -72 -43 -93t-55 -21q-23 0 -33 6t-10 27q0 23 16 77l332 1102q4 12 -10 13h-254q-6 0 -11 -9l-344 -1147q-16 -53 -24 -96 t-8 -78zM604 1668q2 -7 10 -7l250 2l324 315q4 4 3 11.5t-9 7.5h-246q-6 0 -8 -2l-322 -316q-4 -4 -2 -11z" />
<glyph unicode="&#xfb;" d="M113 143q0 -106 68.5 -144t197.5 -38q84 0 151.5 15.5t121 55.5t94 108.5t73.5 172.5l344 1147q4 12 -10 13h-254q-6 0 -10 -9l-332 -1102q-23 -72 -43 -93t-55 -21q-23 0 -33 6t-10 27q0 23 16 77l332 1102q4 12 -10 13h-254q-6 0 -11 -9l-344 -1147q-16 -53 -24 -96 t-8 -78zM507 1572q3 -5 9 -5h193q4 0 8 4l211 323l41 -299q0 -8 10 -8h190q10 0 11 12l-76 553q0 8 -10 9h-174q-4 0 -9 -4l-403 -574q-4 -6 -1 -11z" />
<glyph unicode="&#xfc;" d="M113 143q0 -106 68.5 -144t197.5 -38q84 0 151.5 15.5t121 55.5t94 108.5t73.5 172.5l344 1147q4 12 -10 13h-254q-6 0 -10 -9l-332 -1102q-23 -72 -43 -93t-55 -21q-23 0 -33 6t-10 27q0 23 16 77l332 1102q4 12 -10 13h-254q-6 0 -11 -9l-344 -1147q-16 -53 -24 -96 t-8 -78zM539 1729q-4 -12 10 -13h225q6 0 10 8l80 267q4 12 -10 12h-225q-6 0 -11 -8zM944 1726q-4 -12 10 -12h226q6 0 10 8l80 267q4 12 -10 12h-226q-6 0 -10 -8z" />
<glyph unicode="&#xfd;" horiz-adv-x="902" d="M264 2q-4 -12 10 -12h254q6 0 11 8l168 555l540 903q8 16 -8 17h-266q-2 0 -8 -7l-271 -497l29 493q0 10 -10 11h-267q-10 0 -10 -11l-4 -905v2zM631 1670q2 -7 10 -7l250 2l323 315q4 4 3.5 11.5t-9.5 7.5h-245q-7 0 -9 -2l-321 -316q-4 -4 -2 -11z" />
<glyph unicode="&#xfe;" horiz-adv-x="794" d="M61 2q-4 -12 11 -12h239q6 0 11 8l67 225h47q90 0 155.5 15.5t114 54.5t82 105.5t62.5 166.5l82 279q16 55 24.5 99t8.5 81q0 96 -60.5 131t-193.5 35h-43l80 270q4 12 -11 13h-239q-6 0 -11 -9zM471 510l115 393h28q45 0 50 -29v-10q0 -43 -31 -155q-20 -66 -35.5 -108 t-30.5 -58q-25 -33 -73 -33h-23z" />
<glyph unicode="&#xff;" horiz-adv-x="902" d="M264 2q-4 -12 10 -12h254q6 0 11 8l168 555l540 903q8 16 -8 17h-266q-2 0 -8 -7l-271 -497l29 493q0 10 -10 11h-267q-10 0 -10 -11l-4 -905v2zM557 1724q-4 -12 10 -12h226q6 0 10 8l80 267q3 12 -11 12h-225q-6 0 -10 -8zM963 1722q-4 -12 10 -12h225q6 0 10 8l80 267 q4 12 -10 12h-225q-6 0 -11 -8z" />
<glyph unicode="&#x152;" horiz-adv-x="1128" d="M113 143q0 -106 68.5 -144t197.5 -38q59 0 109.5 7t91.5 24h403q6 0 10 8l80 266q4 12 -10 13h-254l102 344h248q6 0 10 8l82 266q4 12 -10 12h-242l91 305h260q6 0 10 9l82 266q4 12 -10 12h-596q-86 0 -153 -15.5t-120 -55t-94 -108.5t-74 -173l-250 -832 q-16 -53 -24 -96t-8 -78zM412 279q0 4 2 14t6 22l250 828q16 72 86 71q45 0 45 -32q0 -14 -6 -35l-250 -828v3q-14 -41 -32.5 -57.5t-53.5 -16.5q-47 0 -47 31z" />
<glyph unicode="&#x153;" horiz-adv-x="1128" d="M113 143q0 -106 68.5 -144t197.5 -38q59 0 109.5 7t91.5 24h403q6 0 10 8l80 266q4 12 -10 13h-254l102 344h248q6 0 10 8l82 266q4 12 -10 12h-242l91 305h260q6 0 10 9l82 266q4 12 -10 12h-596q-86 0 -153 -15.5t-120 -55t-94 -108.5t-74 -173l-250 -832 q-16 -53 -24 -96t-8 -78zM412 279q0 4 2 14t6 22l250 828q16 72 86 71q45 0 45 -32q0 -14 -6 -35l-250 -828v3q-14 -41 -32.5 -57.5t-53.5 -16.5q-47 0 -47 31z" />
<glyph unicode="&#x178;" horiz-adv-x="902" d="M264 2q-4 -12 10 -12h254q6 0 11 8l168 555l540 903q8 16 -8 17h-266q-2 0 -8 -7l-271 -497l29 493q0 10 -10 11h-267q-10 0 -10 -11l-4 -903zM557 1724q-4 -12 10 -12h226q6 0 10 8l80 267q3 12 -11 12h-225q-6 0 -10 -8zM963 1722q-4 -12 10 -12h225q6 0 10 8l80 267 q4 12 -10 12h-225q-6 0 -11 -8z" />
<glyph unicode="&#x2c6;" horiz-adv-x="1140" d="M445.5 1572q3.5 -5 9.5 -5h192q4 0 8 4l211 323l41 -299q0 -8 11 -8h190q10 0 10 12l-76 553q0 8 -10 9h-174q-4 0 -8 -4l-404 -574q-4 -6 -0.5 -11z" />
<glyph unicode="&#x2dc;" horiz-adv-x="755" d="M117 1626q0 -8 7 -10t11 4q45 51 77 78.5t60 27.5q27 0 80 -38l21 -15q35 -25 65.5 -38t59.5 -13q59 0 111.5 38t99.5 99l6 144q0 8 -7.5 10t-11.5 -4q-45 -51 -77.5 -79t-61.5 -28q-16 0 -33.5 10.5t-44.5 28.5l-20 14q-35 25 -66 38.5t-61 13.5q-59 0 -111.5 -38 t-97.5 -102z" />
<glyph unicode="&#x2000;" horiz-adv-x="1080" />
<glyph unicode="&#x2001;" horiz-adv-x="2161" />
<glyph unicode="&#x2002;" horiz-adv-x="1080" />
<glyph unicode="&#x2003;" horiz-adv-x="2161" />
<glyph unicode="&#x2004;" horiz-adv-x="720" />
<glyph unicode="&#x2005;" horiz-adv-x="540" />
<glyph unicode="&#x2006;" horiz-adv-x="360" />
<glyph unicode="&#x2007;" horiz-adv-x="360" />
<glyph unicode="&#x2008;" horiz-adv-x="270" />
<glyph unicode="&#x2009;" horiz-adv-x="432" />
<glyph unicode="&#x200a;" horiz-adv-x="120" />
<glyph unicode="&#x2010;" horiz-adv-x="644" d="M186 408q-3 -13 11 -13h401q6 0 10 8l74 246q4 12 -10 13h-402q-6 0 -10 -9z" />
<glyph unicode="&#x2011;" horiz-adv-x="644" d="M186 408q-3 -13 11 -13h401q6 0 10 8l74 246q4 12 -10 13h-402q-6 0 -10 -9z" />
<glyph unicode="&#x2012;" horiz-adv-x="644" d="M186 408q-3 -13 11 -13h401q6 0 10 8l74 246q4 12 -10 13h-402q-6 0 -10 -9z" />
<glyph unicode="&#x2013;" horiz-adv-x="1029" d="M193 410q-4 -13 10 -13h776q6 0 10 9l74 245q4 12 -10 13h-777q-6 0 -10 -9z" />
<glyph unicode="&#x2014;" horiz-adv-x="1287" d="M186 408q-3 -13 11 -13h1048q6 0 10 8l74 246q4 12 -10 13h-1049q-6 0 -10 -9z" />
<glyph unicode="&#x2018;" horiz-adv-x="472" d="M330 928q-4 -13 10 -13h225q6 0 10 9l80 266q4 12 -10 12h-67l174 250q8 16 -9 16h-127q-4 0 -8 -4l-198 -268z" />
<glyph unicode="&#x2019;" horiz-adv-x="472" d="M324 932q-8 -16 8 -17h127q4 0 8 5l199 268l79 268q4 12 -10 12h-225q-6 0 -10 -8l-80 -266q-4 -12 10 -12h66z" />
<glyph unicode="&#x201a;" horiz-adv-x="450" d="M-18 -307q-4 -12 10 -12h194q6 0 11 8l168 553q4 12 -11 12h-194q-6 0 -10 -8z" />
<glyph unicode="&#x201c;" horiz-adv-x="823" d="M330 928q-4 -13 10 -13h225q6 0 10 9l80 266q4 12 -10 12h-67l174 250q8 16 -9 16h-127q-4 0 -8 -4l-198 -268zM682 928q-4 -13 10 -13h226q6 0 10 9l80 266q4 12 -11 12h-67l174 250q8 16 -8 16h-127q-4 0 -8 -4l-199 -268z" />
<glyph unicode="&#x201d;" horiz-adv-x="597" d="M324 932q-8 -16 8 -17h127q4 0 8 5l199 268l79 268q4 12 -10 12h-225q-6 0 -10 -8l-80 -266q-4 -12 10 -12h66zM676 930q-8 -16 8 -17h127q4 0 8 5l199 268l80 268q3 12 -11 12h-225q-6 0 -10 -8l-80 -266q-4 -12 10 -12h66z" />
<glyph unicode="&#x201e;" horiz-adv-x="765" d="M-18 -307q-4 -12 10 -12h194q6 0 11 8l168 553q4 12 -11 12h-194q-6 0 -10 -8zM297 -305q-4 -12 10 -12h195q6 0 10 8l168 553q4 12 -10 12h-195q-6 0 -10 -8z" />
<glyph unicode="&#x2022;" horiz-adv-x="915" d="M301 608q0 -111 58.5 -182.5t156.5 -71.5q61 0 125 30t119 81t99 118.5t67 145.5q18 63 18 127q0 111 -58.5 181.5t-156.5 70.5q-61 0 -124.5 -29.5t-119 -80t-99.5 -119t-67 -146.5q-18 -66 -18 -125z" />
<glyph unicode="&#x2026;" horiz-adv-x="1289" d="M63 2q-4 -12 11 -12h225q6 0 10 8l80 266q4 12 -10 12h-225q-6 0 -11 -8zM469 0q-4 -12 10 -12h226q6 0 10 8l80 266q3 12 -11 12h-225q-6 0 -10 -8zM883 4q-4 -12 10 -12h225q6 0 10 8l80 266q4 13 -10 13h-225q-6 0 -10 -9z" />
<glyph unicode="&#x202f;" horiz-adv-x="432" />
<glyph unicode="&#x2039;" horiz-adv-x="491" d="M215 526l66 -256q4 -8 10 -8h170q14 0 10 12l-63 250l247 252q4 4 2 11.5t-10 7.5h-170q-6 0 -8 -2l-252 -256q-2 -3 -2 -11z" />
<glyph unicode="&#x203a;" horiz-adv-x="491" d="M100 268.5q2 -6.5 11 -6.5h172q4 0 8 4l233 256q2 2 2 10l-86 256q-4 7 -10 7h-170q-14 0 -10 -15l84 -250l-232 -251q-4 -4 -2 -10.5z" />
<glyph unicode="&#x205f;" horiz-adv-x="540" />
<glyph unicode="&#x20ac;" horiz-adv-x="1042" d="M215 514q-4 -14 10 -14h178l-53 -183q-31 -98 -31 -167q0 -98 61.5 -143.5t194.5 -45.5h25q6 0 12 1t13 1q6 0 10 8l76 277q2 8 -3.5 11t-11.5 -1q-20 -10 -41 -10q-37 0 -37 33q0 16 11 57l98 360q4 12 -10 13h-422q-8 0 -10 -6zM334 809q-4 -14 10 -14l412 -2q6 0 10 8 l98 319q16 55 38 74.5t50 19.5q16 0 28.5 -9t12.5 -25q0 -2 -4 -19l-63 -219q-4 -12 10 -12h254q6 0 10 8l62 207q29 98 28 164q0 100 -62.5 146t-195.5 46q-176 0 -277.5 -83t-154.5 -269l-49 -160h-152q-8 0 -10 -6z" />
<glyph unicode="&#x2122;" horiz-adv-x="1103" d="M307 680q-4 -12 10 -12h136q6 0 10 8l190 633h92q6 0 11 8l45 143q4 12 -10 13h-338q-6 0 -11 -9l-45 -143q-4 -12 11 -12h88zM584 680q-4 -12 10 -12h129q6 0 10 8l154 512l-90 -508q-4 -12 10 -12h137q6 0 10 6l215 508l-149 -502q-4 -12 10 -12h127q6 0 10 8l238 784 q4 12 -10 13h-217q-8 0 -11 -7l-211 -518l101 512q4 12 -10 13h-218q-6 0 -10 -9z" />
<glyph unicode="&#x25fc;" horiz-adv-x="1570" d="M0 0v1475h1475v-1475h-1475z" />
</font>
</defs>
</svg>
